<?xml version="1.0" encoding="UTF-8"?><svg id="Layer_2" xmlns="http://www.w3.org/2000/svg" viewBox="0 0 1923.33 1094.51"><defs><style>.cls-1{fill:none;}.cls-1,.cls-2,.cls-3{stroke:#000;stroke-miterlimit:10;}.cls-1,.cls-3{stroke-width:4px;}.cls-4{fill:#39b44a;}.cls-4,.cls-5,.cls-6{font-family:TwoFiftySixBytes-Regular, '256 Bytes';font-size:189.51px;}.cls-7,.cls-2{fill:#666667;}.cls-2{stroke-width:3px;}.cls-8{fill:#4d4e4e;}.cls-3{fill:#333;}.cls-5{fill:#006937;}</style></defs><g id="Layer_1-2"><path class="cls-2" d="m1909.83,1.5H14.13C7.53,1.5,2.13,6.9,2.13,13.5v1055.75c0,6.6,5.4,12,12,12h1895.7c6.6,0,12-5.4,12-12V13.5c0-6.6-5.4-12-12-12Zm-90.9,662.12c0,6.6-5.4,12-12,12H121.3c-6.6,0-12-5.4-12-12V71.85c0-6.6,5.4-12,12-12h1685.63c6.6,0,12,5.4,12,12v591.77Z"/><rect class="cls-3" x="41.59" y="744.54" width="1851.37" height="276.71" rx="12" ry="12"/><path class="cls-8" d="m104.69,757.82c10.54,0,19.08-5.05,19.08-11.27h-24.23c-4.75,0-9.34.4-13.75,1.08.93,5.71,8.98,10.2,18.9,10.2Z"/><path class="cls-8" d="m162.55,757.82c10.54,0,19.08-5.05,19.08-11.27h-38.16c0,6.23,8.54,11.27,19.08,11.27Z"/><path class="cls-8" d="m220.4,757.82c10.54,0,19.08-5.05,19.08-11.27h-38.16c0,6.23,8.54,11.27,19.08,11.27Z"/><path class="cls-8" d="m278.26,757.82c10.54,0,19.08-5.05,19.08-11.27h-38.16c0,6.23,8.54,11.27,19.08,11.27Z"/><path class="cls-8" d="m336.12,757.82c10.54,0,19.08-5.05,19.08-11.27h-38.16c0,6.23,8.54,11.27,19.08,11.27Z"/><path class="cls-8" d="m393.97,757.82c10.54,0,19.08-5.05,19.08-11.27h-38.16c0,6.23,8.54,11.27,19.08,11.27Z"/><path class="cls-8" d="m451.83,757.82c10.54,0,19.08-5.05,19.08-11.27h-38.16c0,6.23,8.54,11.27,19.08,11.27Z"/><path class="cls-8" d="m509.69,757.82c10.54,0,19.08-5.05,19.08-11.27h-38.16c0,6.23,8.54,11.27,19.08,11.27Z"/><path class="cls-8" d="m567.54,757.82c10.54,0,19.08-5.05,19.08-11.27h-38.16c0,6.23,8.54,11.27,19.08,11.27Z"/><path class="cls-8" d="m625.4,757.82c10.54,0,19.08-5.05,19.08-11.27h-38.16c0,6.23,8.54,11.27,19.08,11.27Z"/><path class="cls-8" d="m683.26,757.82c10.54,0,19.08-5.05,19.08-11.27h-38.16c0,6.23,8.54,11.27,19.08,11.27Z"/><path class="cls-8" d="m741.11,757.82c10.54,0,19.08-5.05,19.08-11.27h-38.16c0,6.23,8.54,11.27,19.08,11.27Z"/><path class="cls-8" d="m798.97,757.82c10.54,0,19.08-5.05,19.08-11.27h-38.16c0,6.23,8.54,11.27,19.08,11.27Z"/><path class="cls-8" d="m856.83,757.82c10.54,0,19.08-5.05,19.08-11.27h-38.16c0,6.23,8.54,11.27,19.08,11.27Z"/><path class="cls-8" d="m914.68,757.82c10.54,0,19.08-5.05,19.08-11.27h-38.16c0,6.23,8.54,11.27,19.08,11.27Z"/><path class="cls-8" d="m972.54,757.82c10.54,0,19.08-5.05,19.08-11.27h-38.16c0,6.23,8.54,11.27,19.08,11.27Z"/><path class="cls-8" d="m1030.4,757.82c10.54,0,19.08-5.05,19.08-11.27h-38.16c0,6.23,8.54,11.27,19.08,11.27Z"/><path class="cls-8" d="m1088.25,757.82c10.54,0,19.08-5.05,19.08-11.27h-38.16c0,6.23,8.54,11.27,19.08,11.27Z"/><path class="cls-8" d="m1146.11,757.82c10.54,0,19.08-5.05,19.08-11.27h-38.16c0,6.23,8.54,11.27,19.08,11.27Z"/><path class="cls-8" d="m1203.97,757.82c10.54,0,19.08-5.05,19.08-11.27h-38.16c0,6.23,8.54,11.27,19.08,11.27Z"/><path class="cls-8" d="m1261.82,757.82c10.54,0,19.08-5.05,19.08-11.27h-38.16c0,6.23,8.54,11.27,19.08,11.27Z"/><path class="cls-8" d="m1319.68,757.82c10.54,0,19.08-5.05,19.08-11.27h-38.16c0,6.23,8.54,11.27,19.08,11.27Z"/><path class="cls-8" d="m1377.54,757.82c10.54,0,19.08-5.05,19.08-11.27h-38.16c0,6.23,8.54,11.27,19.08,11.27Z"/><path class="cls-8" d="m1435.39,757.82c10.54,0,19.08-5.05,19.08-11.27h-38.16c0,6.23,8.54,11.27,19.08,11.27Z"/><path class="cls-8" d="m1493.25,757.82c10.54,0,19.08-5.05,19.08-11.27h-38.16c0,6.23,8.54,11.27,19.08,11.27Z"/><path class="cls-8" d="m1551.11,757.82c10.54,0,19.08-5.05,19.08-11.27h-38.16c0,6.23,8.54,11.27,19.08,11.27Z"/><path class="cls-8" d="m1608.96,757.82c10.54,0,19.08-5.05,19.08-11.27h-38.16c0,6.23,8.54,11.27,19.08,11.27Z"/><path class="cls-8" d="m1666.82,757.82c10.54,0,19.08-5.05,19.08-11.27h-38.16c0,6.23,8.54,11.27,19.08,11.27Z"/><path class="cls-8" d="m1724.68,757.82c10.54,0,19.08-5.05,19.08-11.27h-38.16c0,6.23,8.54,11.27,19.08,11.27Z"/><path class="cls-8" d="m1782.53,757.82c10.54,0,19.08-5.05,19.08-11.27h-38.16c0,6.23,8.54,11.27,19.08,11.27Z"/><path class="cls-8" d="m1840.39,757.82c9.45,0,17.25-4.07,18.76-9.4-5.69-1.19-11.79-1.87-18.15-1.87h-19.7c0,6.23,8.54,11.27,19.08,11.27Z"/><path class="cls-8" d="m75.93,785.12c10.54,0,19.08-5.05,19.08-11.27s-8.54-11.27-19.08-11.27-19.08,5.05-19.08,11.27,8.54,11.27,19.08,11.27Z"/><ellipse class="cls-8" cx="133.79" cy="773.84" rx="19.08" ry="11.27"/><ellipse class="cls-8" cx="191.64" cy="773.84" rx="19.08" ry="11.27"/><ellipse class="cls-8" cx="249.5" cy="773.84" rx="19.08" ry="11.27"/><ellipse class="cls-8" cx="307.36" cy="773.84" rx="19.08" ry="11.27"/><ellipse class="cls-8" cx="365.21" cy="773.84" rx="19.08" ry="11.27"/><ellipse class="cls-8" cx="423.07" cy="773.84" rx="19.08" ry="11.27"/><ellipse class="cls-8" cx="480.93" cy="773.84" rx="19.08" ry="11.27"/><ellipse class="cls-8" cx="538.78" cy="773.84" rx="19.08" ry="11.27"/><ellipse class="cls-8" cx="596.64" cy="773.84" rx="19.08" ry="11.27"/><ellipse class="cls-8" cx="654.5" cy="773.84" rx="19.08" ry="11.27"/><ellipse class="cls-8" cx="712.35" cy="773.84" rx="19.08" ry="11.27"/><ellipse class="cls-8" cx="770.21" cy="773.84" rx="19.08" ry="11.27"/><ellipse class="cls-8" cx="828.07" cy="773.84" rx="19.08" ry="11.27"/><ellipse class="cls-8" cx="885.92" cy="773.84" rx="19.08" ry="11.27"/><ellipse class="cls-8" cx="943.78" cy="773.84" rx="19.08" ry="11.27"/><ellipse class="cls-8" cx="1001.64" cy="773.84" rx="19.08" ry="11.27"/><ellipse class="cls-8" cx="1059.49" cy="773.84" rx="19.08" ry="11.27"/><ellipse class="cls-8" cx="1117.35" cy="773.84" rx="19.08" ry="11.27"/><ellipse class="cls-8" cx="1175.21" cy="773.84" rx="19.08" ry="11.27"/><ellipse class="cls-8" cx="1233.06" cy="773.84" rx="19.08" ry="11.27"/><ellipse class="cls-8" cx="1290.92" cy="773.84" rx="19.08" ry="11.27"/><ellipse class="cls-8" cx="1348.78" cy="773.84" rx="19.08" ry="11.27"/><ellipse class="cls-8" cx="1406.63" cy="773.84" rx="19.08" ry="11.27"/><ellipse class="cls-8" cx="1464.49" cy="773.84" rx="19.08" ry="11.27"/><ellipse class="cls-8" cx="1522.35" cy="773.84" rx="19.08" ry="11.27"/><ellipse class="cls-8" cx="1580.2" cy="773.84" rx="19.08" ry="11.27"/><ellipse class="cls-8" cx="1638.06" cy="773.84" rx="19.08" ry="11.27"/><ellipse class="cls-8" cx="1695.92" cy="773.84" rx="19.08" ry="11.27"/><ellipse class="cls-8" cx="1753.77" cy="773.84" rx="19.08" ry="11.27"/><ellipse class="cls-8" cx="1811.63" cy="773.84" rx="19.08" ry="11.27"/><ellipse class="cls-8" cx="1869.49" cy="773.84" rx="19.08" ry="11.27"/><path class="cls-8" d="m64.78,801.14c0-6.23-8.54-11.27-19.08-11.27-.38,0-.74.05-1.11.07v22.41c.38.01.73.07,1.11.07,10.54,0,19.08-5.05,19.08-11.27Z"/><path class="cls-8" d="m103.56,789.87c-10.54,0-19.08,5.05-19.08,11.27s8.54,11.27,19.08,11.27,19.08-5.05,19.08-11.27-8.54-11.27-19.08-11.27Z"/><path class="cls-8" d="m161.41,789.87c-10.54,0-19.08,5.05-19.08,11.27s8.54,11.27,19.08,11.27,19.08-5.05,19.08-11.27-8.54-11.27-19.08-11.27Z"/><path class="cls-8" d="m219.27,789.87c-10.54,0-19.08,5.05-19.08,11.27s8.54,11.27,19.08,11.27,19.08-5.05,19.08-11.27-8.54-11.27-19.08-11.27Z"/><path class="cls-8" d="m277.13,789.87c-10.54,0-19.08,5.05-19.08,11.27s8.54,11.27,19.08,11.27,19.08-5.05,19.08-11.27-8.54-11.27-19.08-11.27Z"/><path class="cls-8" d="m334.98,789.87c-10.54,0-19.08,5.05-19.08,11.27s8.54,11.27,19.08,11.27,19.08-5.05,19.08-11.27-8.54-11.27-19.08-11.27Z"/><path class="cls-8" d="m392.84,789.87c-10.54,0-19.08,5.05-19.08,11.27s8.54,11.27,19.08,11.27,19.08-5.05,19.08-11.27-8.54-11.27-19.08-11.27Z"/><path class="cls-8" d="m450.7,789.87c-10.54,0-19.08,5.05-19.08,11.27s8.54,11.27,19.08,11.27,19.08-5.05,19.08-11.27-8.54-11.27-19.08-11.27Z"/><path class="cls-8" d="m508.55,789.87c-10.54,0-19.08,5.05-19.08,11.27s8.54,11.27,19.08,11.27,19.08-5.05,19.08-11.27-8.54-11.27-19.08-11.27Z"/><path class="cls-8" d="m566.41,789.87c-10.54,0-19.08,5.05-19.08,11.27s8.54,11.27,19.08,11.27,19.08-5.05,19.08-11.27-8.54-11.27-19.08-11.27Z"/><path class="cls-8" d="m624.27,789.87c-10.54,0-19.08,5.05-19.08,11.27s8.54,11.27,19.08,11.27,19.08-5.05,19.08-11.27-8.54-11.27-19.08-11.27Z"/><path class="cls-8" d="m682.12,789.87c-10.54,0-19.08,5.05-19.08,11.27s8.54,11.27,19.08,11.27,19.08-5.05,19.08-11.27-8.54-11.27-19.08-11.27Z"/><path class="cls-8" d="m739.98,789.87c-10.54,0-19.08,5.05-19.08,11.27s8.54,11.27,19.08,11.27,19.08-5.05,19.08-11.27-8.54-11.27-19.08-11.27Z"/><path class="cls-8" d="m797.84,789.87c-10.54,0-19.08,5.05-19.08,11.27s8.54,11.27,19.08,11.27,19.08-5.05,19.08-11.27-8.54-11.27-19.08-11.27Z"/><path class="cls-8" d="m855.69,789.87c-10.54,0-19.08,5.05-19.08,11.27s8.54,11.27,19.08,11.27,19.08-5.05,19.08-11.27-8.54-11.27-19.08-11.27Z"/><path class="cls-8" d="m913.55,789.87c-10.54,0-19.08,5.05-19.08,11.27s8.54,11.27,19.08,11.27,19.08-5.05,19.08-11.27-8.54-11.27-19.08-11.27Z"/><path class="cls-8" d="m971.41,789.87c-10.54,0-19.08,5.05-19.08,11.27s8.54,11.27,19.08,11.27,19.08-5.05,19.08-11.27-8.54-11.27-19.08-11.27Z"/><path class="cls-8" d="m1029.26,789.87c-10.54,0-19.08,5.05-19.08,11.27s8.54,11.27,19.08,11.27,19.08-5.05,19.08-11.27-8.54-11.27-19.08-11.27Z"/><path class="cls-8" d="m1087.12,789.87c-10.54,0-19.08,5.05-19.08,11.27s8.54,11.27,19.08,11.27,19.08-5.05,19.08-11.27-8.54-11.27-19.08-11.27Z"/><path class="cls-8" d="m1144.98,789.87c-10.54,0-19.08,5.05-19.08,11.27s8.54,11.27,19.08,11.27,19.08-5.05,19.08-11.27-8.54-11.27-19.08-11.27Z"/><path class="cls-8" d="m1202.83,789.87c-10.54,0-19.08,5.05-19.08,11.27s8.54,11.27,19.08,11.27,19.08-5.05,19.08-11.27-8.54-11.27-19.08-11.27Z"/><path class="cls-8" d="m1260.69,789.87c-10.54,0-19.08,5.05-19.08,11.27s8.54,11.27,19.08,11.27,19.08-5.05,19.08-11.27-8.54-11.27-19.08-11.27Z"/><path class="cls-8" d="m1318.55,789.87c-10.54,0-19.08,5.05-19.08,11.27s8.54,11.27,19.08,11.27,19.08-5.05,19.08-11.27-8.54-11.27-19.08-11.27Z"/><path class="cls-8" d="m1376.4,789.87c-10.54,0-19.08,5.05-19.08,11.27s8.54,11.27,19.08,11.27,19.08-5.05,19.08-11.27-8.54-11.27-19.08-11.27Z"/><path class="cls-8" d="m1434.26,789.87c-10.54,0-19.08,5.05-19.08,11.27s8.54,11.27,19.08,11.27,19.08-5.05,19.08-11.27-8.54-11.27-19.08-11.27Z"/><path class="cls-8" d="m1492.12,789.87c-10.54,0-19.08,5.05-19.08,11.27s8.54,11.27,19.08,11.27,19.08-5.05,19.08-11.27-8.54-11.27-19.08-11.27Z"/><path class="cls-8" d="m1549.97,789.87c-10.54,0-19.08,5.05-19.08,11.27s8.54,11.27,19.08,11.27,19.08-5.05,19.08-11.27-8.54-11.27-19.08-11.27Z"/><path class="cls-8" d="m1607.83,789.87c-10.54,0-19.08,5.05-19.08,11.27s8.54,11.27,19.08,11.27,19.08-5.05,19.08-11.27-8.54-11.27-19.08-11.27Z"/><path class="cls-8" d="m1665.69,789.87c-10.54,0-19.08,5.05-19.08,11.27s8.54,11.27,19.08,11.27,19.08-5.05,19.08-11.27-8.54-11.27-19.08-11.27Z"/><path class="cls-8" d="m1723.54,789.87c-10.54,0-19.08,5.05-19.08,11.27s8.54,11.27,19.08,11.27,19.08-5.05,19.08-11.27-8.54-11.27-19.08-11.27Z"/><path class="cls-8" d="m1781.4,789.87c-10.54,0-19.08,5.05-19.08,11.27s8.54,11.27,19.08,11.27,19.08-5.05,19.08-11.27-8.54-11.27-19.08-11.27Z"/><path class="cls-8" d="m1858.34,801.14c0-6.23-8.54-11.27-19.08-11.27s-19.08,5.05-19.08,11.27,8.54,11.27,19.08,11.27,19.08-5.05,19.08-11.27Z"/><path class="cls-8" d="m1878.03,801.14c0,5.99,7.94,10.84,17.93,11.2v-22.41c-9.99.36-17.93,5.21-17.93,11.2Z"/><ellipse class="cls-8" cx="74.8" cy="828.44" rx="19.08" ry="11.27"/><ellipse class="cls-8" cx="132.65" cy="828.44" rx="19.08" ry="11.27"/><ellipse class="cls-8" cx="190.51" cy="828.44" rx="19.08" ry="11.27"/><ellipse class="cls-8" cx="248.37" cy="828.44" rx="19.08" ry="11.27"/><ellipse class="cls-8" cx="306.22" cy="828.44" rx="19.08" ry="11.27"/><ellipse class="cls-8" cx="364.08" cy="828.44" rx="19.08" ry="11.27"/><ellipse class="cls-8" cx="421.94" cy="828.44" rx="19.08" ry="11.27"/><ellipse class="cls-8" cx="479.79" cy="828.44" rx="19.08" ry="11.27"/><ellipse class="cls-8" cx="537.65" cy="828.44" rx="19.08" ry="11.27"/><ellipse class="cls-8" cx="595.51" cy="828.44" rx="19.08" ry="11.27"/><ellipse class="cls-8" cx="653.36" cy="828.44" rx="19.08" ry="11.27"/><ellipse class="cls-8" cx="711.22" cy="828.44" rx="19.08" ry="11.27"/><ellipse class="cls-8" cx="769.08" cy="828.44" rx="19.08" ry="11.27"/><ellipse class="cls-8" cx="826.93" cy="828.44" rx="19.08" ry="11.27"/><ellipse class="cls-8" cx="884.79" cy="828.44" rx="19.08" ry="11.27"/><ellipse class="cls-8" cx="942.65" cy="828.44" rx="19.08" ry="11.27"/><ellipse class="cls-8" cx="1000.5" cy="828.44" rx="19.08" ry="11.27"/><ellipse class="cls-8" cx="1058.36" cy="828.44" rx="19.08" ry="11.27"/><ellipse class="cls-8" cx="1116.22" cy="828.44" rx="19.08" ry="11.27"/><ellipse class="cls-8" cx="1174.07" cy="828.44" rx="19.08" ry="11.27"/><ellipse class="cls-8" cx="1231.93" cy="828.44" rx="19.08" ry="11.27"/><ellipse class="cls-8" cx="1289.79" cy="828.44" rx="19.08" ry="11.27"/><ellipse class="cls-8" cx="1347.64" cy="828.44" rx="19.08" ry="11.27"/><ellipse class="cls-8" cx="1405.5" cy="828.44" rx="19.08" ry="11.27"/><ellipse class="cls-8" cx="1463.36" cy="828.44" rx="19.08" ry="11.27"/><ellipse class="cls-8" cx="1521.21" cy="828.44" rx="19.08" ry="11.27"/><ellipse class="cls-8" cx="1579.07" cy="828.44" rx="19.08" ry="11.27"/><ellipse class="cls-8" cx="1636.93" cy="828.44" rx="19.08" ry="11.27"/><ellipse class="cls-8" cx="1694.78" cy="828.44" rx="19.08" ry="11.27"/><ellipse class="cls-8" cx="1752.64" cy="828.44" rx="19.08" ry="11.27"/><ellipse class="cls-8" cx="1810.5" cy="828.44" rx="19.08" ry="11.27"/><ellipse class="cls-8" cx="1868.35" cy="828.44" rx="19.08" ry="11.27"/><path class="cls-8" d="m64.78,855.74c0-6.23-8.54-11.27-19.08-11.27-.38,0-.74.05-1.11.07v22.41c.38.01.73.07,1.11.07,10.54,0,19.08-5.05,19.08-11.27Z"/><path class="cls-8" d="m103.56,844.47c-10.54,0-19.08,5.05-19.08,11.27s8.54,11.27,19.08,11.27,19.08-5.05,19.08-11.27-8.54-11.27-19.08-11.27Z"/><path class="cls-8" d="m161.41,844.47c-10.54,0-19.08,5.05-19.08,11.27s8.54,11.27,19.08,11.27,19.08-5.05,19.08-11.27-8.54-11.27-19.08-11.27Z"/><path class="cls-8" d="m219.27,844.47c-10.54,0-19.08,5.05-19.08,11.27s8.54,11.27,19.08,11.27,19.08-5.05,19.08-11.27-8.54-11.27-19.08-11.27Z"/><path class="cls-8" d="m277.13,844.47c-10.54,0-19.08,5.05-19.08,11.27s8.54,11.27,19.08,11.27,19.08-5.05,19.08-11.27-8.54-11.27-19.08-11.27Z"/><path class="cls-8" d="m334.98,844.47c-10.54,0-19.08,5.05-19.08,11.27s8.54,11.27,19.08,11.27,19.08-5.05,19.08-11.27-8.54-11.27-19.08-11.27Z"/><path class="cls-8" d="m392.84,844.47c-10.54,0-19.08,5.05-19.08,11.27s8.54,11.27,19.08,11.27,19.08-5.05,19.08-11.27-8.54-11.27-19.08-11.27Z"/><path class="cls-8" d="m450.7,844.47c-10.54,0-19.08,5.05-19.08,11.27s8.54,11.27,19.08,11.27,19.08-5.05,19.08-11.27-8.54-11.27-19.08-11.27Z"/><path class="cls-8" d="m508.55,844.47c-10.54,0-19.08,5.05-19.08,11.27s8.54,11.27,19.08,11.27,19.08-5.05,19.08-11.27-8.54-11.27-19.08-11.27Z"/><path class="cls-8" d="m566.41,844.47c-10.54,0-19.08,5.05-19.08,11.27s8.54,11.27,19.08,11.27,19.08-5.05,19.08-11.27-8.54-11.27-19.08-11.27Z"/><path class="cls-8" d="m624.27,844.47c-10.54,0-19.08,5.05-19.08,11.27s8.54,11.27,19.08,11.27,19.08-5.05,19.08-11.27-8.54-11.27-19.08-11.27Z"/><path class="cls-8" d="m682.12,844.47c-10.54,0-19.08,5.05-19.08,11.27s8.54,11.27,19.08,11.27,19.08-5.05,19.08-11.27-8.54-11.27-19.08-11.27Z"/><path class="cls-8" d="m739.98,844.47c-10.54,0-19.08,5.05-19.08,11.27s8.54,11.27,19.08,11.27,19.08-5.05,19.08-11.27-8.54-11.27-19.08-11.27Z"/><path class="cls-8" d="m797.84,844.47c-10.54,0-19.08,5.05-19.08,11.27s8.54,11.27,19.08,11.27,19.08-5.05,19.08-11.27-8.54-11.27-19.08-11.27Z"/><path class="cls-8" d="m855.69,844.47c-10.54,0-19.08,5.05-19.08,11.27s8.54,11.27,19.08,11.27,19.08-5.05,19.08-11.27-8.54-11.27-19.08-11.27Z"/><path class="cls-8" d="m913.55,844.47c-10.54,0-19.08,5.05-19.08,11.27s8.54,11.27,19.08,11.27,19.08-5.05,19.08-11.27-8.54-11.27-19.08-11.27Z"/><path class="cls-8" d="m971.41,844.47c-10.54,0-19.08,5.05-19.08,11.27s8.54,11.27,19.08,11.27,19.08-5.05,19.08-11.27-8.54-11.27-19.08-11.27Z"/><path class="cls-8" d="m1029.26,844.47c-10.54,0-19.08,5.05-19.08,11.27s8.54,11.27,19.08,11.27,19.08-5.05,19.08-11.27-8.54-11.27-19.08-11.27Z"/><path class="cls-8" d="m1087.12,844.47c-10.54,0-19.08,5.05-19.08,11.27s8.54,11.27,19.08,11.27,19.08-5.05,19.08-11.27-8.54-11.27-19.08-11.27Z"/><path class="cls-8" d="m1144.98,844.47c-10.54,0-19.08,5.05-19.08,11.27s8.54,11.27,19.08,11.27,19.08-5.05,19.08-11.27-8.54-11.27-19.08-11.27Z"/><path class="cls-8" d="m1202.83,844.47c-10.54,0-19.08,5.05-19.08,11.27s8.54,11.27,19.08,11.27,19.08-5.05,19.08-11.27-8.54-11.27-19.08-11.27Z"/><path class="cls-8" d="m1260.69,844.47c-10.54,0-19.08,5.05-19.08,11.27s8.54,11.27,19.08,11.27,19.08-5.05,19.08-11.27-8.54-11.27-19.08-11.27Z"/><path class="cls-8" d="m1318.55,844.47c-10.54,0-19.08,5.05-19.08,11.27s8.54,11.27,19.08,11.27,19.08-5.05,19.08-11.27-8.54-11.27-19.08-11.27Z"/><path class="cls-8" d="m1376.4,844.47c-10.54,0-19.08,5.05-19.08,11.27s8.54,11.27,19.08,11.27,19.08-5.05,19.08-11.27-8.54-11.27-19.08-11.27Z"/><path class="cls-8" d="m1434.26,844.47c-10.54,0-19.08,5.05-19.08,11.27s8.54,11.27,19.08,11.27,19.08-5.05,19.08-11.27-8.54-11.27-19.08-11.27Z"/><path class="cls-8" d="m1492.12,844.47c-10.54,0-19.08,5.05-19.08,11.27s8.54,11.27,19.08,11.27,19.08-5.05,19.08-11.27-8.54-11.27-19.08-11.27Z"/><path class="cls-8" d="m1549.97,844.47c-10.54,0-19.08,5.05-19.08,11.27s8.54,11.27,19.08,11.27,19.08-5.05,19.08-11.27-8.54-11.27-19.08-11.27Z"/><path class="cls-8" d="m1607.83,844.47c-10.54,0-19.08,5.05-19.08,11.27s8.54,11.27,19.08,11.27,19.08-5.05,19.08-11.27-8.54-11.27-19.08-11.27Z"/><path class="cls-8" d="m1665.69,844.47c-10.54,0-19.08,5.05-19.08,11.27s8.54,11.27,19.08,11.27,19.08-5.05,19.08-11.27-8.54-11.27-19.08-11.27Z"/><path class="cls-8" d="m1723.54,844.47c-10.54,0-19.08,5.05-19.08,11.27s8.54,11.27,19.08,11.27,19.08-5.05,19.08-11.27-8.54-11.27-19.08-11.27Z"/><path class="cls-8" d="m1781.4,844.47c-10.54,0-19.08,5.05-19.08,11.27s8.54,11.27,19.08,11.27,19.08-5.05,19.08-11.27-8.54-11.27-19.08-11.27Z"/><path class="cls-8" d="m1858.34,855.74c0-6.23-8.54-11.27-19.08-11.27s-19.08,5.05-19.08,11.27,8.54,11.27,19.08,11.27,19.08-5.05,19.08-11.27Z"/><path class="cls-8" d="m1878.03,855.74c0,5.99,7.94,10.84,17.93,11.2v-22.41c-9.99.36-17.93,5.21-17.93,11.2Z"/><path class="cls-8" d="m55.72,883.04c0,6.23,8.54,11.27,19.08,11.27s19.08-5.05,19.08-11.27-8.54-11.27-19.08-11.27-19.08,5.05-19.08,11.27Z"/><path class="cls-8" d="m113.57,883.04c0,6.23,8.54,11.27,19.08,11.27s19.08-5.05,19.08-11.27-8.54-11.27-19.08-11.27-19.08,5.05-19.08,11.27Z"/><path class="cls-8" d="m171.43,883.04c0,6.23,8.54,11.27,19.08,11.27s19.08-5.05,19.08-11.27-8.54-11.27-19.08-11.27-19.08,5.05-19.08,11.27Z"/><path class="cls-8" d="m229.29,883.04c0,6.23,8.54,11.27,19.08,11.27s19.08-5.05,19.08-11.27-8.54-11.27-19.08-11.27-19.08,5.05-19.08,11.27Z"/><path class="cls-8" d="m287.14,883.04c0,6.23,8.54,11.27,19.08,11.27s19.08-5.05,19.08-11.27-8.54-11.27-19.08-11.27-19.08,5.05-19.08,11.27Z"/><path class="cls-8" d="m345,883.04c0,6.23,8.54,11.27,19.08,11.27s19.08-5.05,19.08-11.27-8.54-11.27-19.08-11.27-19.08,5.05-19.08,11.27Z"/><path class="cls-8" d="m402.86,883.04c0,6.23,8.54,11.27,19.08,11.27s19.08-5.05,19.08-11.27-8.54-11.27-19.08-11.27-19.08,5.05-19.08,11.27Z"/><path class="cls-8" d="m460.71,883.04c0,6.23,8.54,11.27,19.08,11.27s19.08-5.05,19.08-11.27-8.54-11.27-19.08-11.27-19.08,5.05-19.08,11.27Z"/><path class="cls-8" d="m518.57,883.04c0,6.23,8.54,11.27,19.08,11.27s19.08-5.05,19.08-11.27-8.54-11.27-19.08-11.27-19.08,5.05-19.08,11.27Z"/><path class="cls-8" d="m576.43,883.04c0,6.23,8.54,11.27,19.08,11.27s19.08-5.05,19.08-11.27-8.54-11.27-19.08-11.27-19.08,5.05-19.08,11.27Z"/><path class="cls-8" d="m634.28,883.04c0,6.23,8.54,11.27,19.08,11.27s19.08-5.05,19.08-11.27-8.54-11.27-19.08-11.27-19.08,5.05-19.08,11.27Z"/><path class="cls-8" d="m692.14,883.04c0,6.23,8.54,11.27,19.08,11.27s19.08-5.05,19.08-11.27-8.54-11.27-19.08-11.27-19.08,5.05-19.08,11.27Z"/><path class="cls-8" d="m750,883.04c0,6.23,8.54,11.27,19.08,11.27s19.08-5.05,19.08-11.27-8.54-11.27-19.08-11.27-19.08,5.05-19.08,11.27Z"/><path class="cls-8" d="m807.85,883.04c0,6.23,8.54,11.27,19.08,11.27s19.08-5.05,19.08-11.27-8.54-11.27-19.08-11.27-19.08,5.05-19.08,11.27Z"/><path class="cls-8" d="m865.71,883.04c0,6.23,8.54,11.27,19.08,11.27s19.08-5.05,19.08-11.27-8.54-11.27-19.08-11.27-19.08,5.05-19.08,11.27Z"/><path class="cls-8" d="m923.57,883.04c0,6.23,8.54,11.27,19.08,11.27s19.08-5.05,19.08-11.27-8.54-11.27-19.08-11.27-19.08,5.05-19.08,11.27Z"/><path class="cls-8" d="m981.42,883.04c0,6.23,8.54,11.27,19.08,11.27s19.08-5.05,19.08-11.27-8.54-11.27-19.08-11.27-19.08,5.05-19.08,11.27Z"/><path class="cls-8" d="m1039.28,883.04c0,6.23,8.54,11.27,19.08,11.27s19.08-5.05,19.08-11.27-8.54-11.27-19.08-11.27-19.08,5.05-19.08,11.27Z"/><path class="cls-8" d="m1097.14,883.04c0,6.23,8.54,11.27,19.08,11.27s19.08-5.05,19.08-11.27-8.54-11.27-19.08-11.27-19.08,5.05-19.08,11.27Z"/><path class="cls-8" d="m1154.99,883.04c0,6.23,8.54,11.27,19.08,11.27s19.08-5.05,19.08-11.27-8.54-11.27-19.08-11.27-19.08,5.05-19.08,11.27Z"/><path class="cls-8" d="m1212.85,883.04c0,6.23,8.54,11.27,19.08,11.27s19.08-5.05,19.08-11.27-8.54-11.27-19.08-11.27-19.08,5.05-19.08,11.27Z"/><path class="cls-8" d="m1270.71,883.04c0,6.23,8.54,11.27,19.08,11.27s19.08-5.05,19.08-11.27-8.54-11.27-19.08-11.27-19.08,5.05-19.08,11.27Z"/><path class="cls-8" d="m1328.56,883.04c0,6.23,8.54,11.27,19.08,11.27s19.08-5.05,19.08-11.27-8.54-11.27-19.08-11.27-19.08,5.05-19.08,11.27Z"/><path class="cls-8" d="m1386.42,883.04c0,6.23,8.54,11.27,19.08,11.27s19.08-5.05,19.08-11.27-8.54-11.27-19.08-11.27-19.08,5.05-19.08,11.27Z"/><path class="cls-8" d="m1444.28,883.04c0,6.23,8.54,11.27,19.08,11.27s19.08-5.05,19.08-11.27-8.54-11.27-19.08-11.27-19.08,5.05-19.08,11.27Z"/><path class="cls-8" d="m1502.13,883.04c0,6.23,8.54,11.27,19.08,11.27s19.08-5.05,19.08-11.27-8.54-11.27-19.08-11.27-19.08,5.05-19.08,11.27Z"/><path class="cls-8" d="m1559.99,883.04c0,6.23,8.54,11.27,19.08,11.27s19.08-5.05,19.08-11.27-8.54-11.27-19.08-11.27-19.08,5.05-19.08,11.27Z"/><path class="cls-8" d="m1617.85,883.04c0,6.23,8.54,11.27,19.08,11.27s19.08-5.05,19.08-11.27-8.54-11.27-19.08-11.27-19.08,5.05-19.08,11.27Z"/><path class="cls-8" d="m1675.7,883.04c0,6.23,8.54,11.27,19.08,11.27s19.08-5.05,19.08-11.27-8.54-11.27-19.08-11.27-19.08,5.05-19.08,11.27Z"/><path class="cls-8" d="m1733.56,883.04c0,6.23,8.54,11.27,19.08,11.27s19.08-5.05,19.08-11.27-8.54-11.27-19.08-11.27-19.08,5.05-19.08,11.27Z"/><path class="cls-8" d="m1810.5,894.31c10.54,0,19.08-5.05,19.08-11.27s-8.54-11.27-19.08-11.27-19.08,5.05-19.08,11.27,8.54,11.27,19.08,11.27Z"/><path class="cls-8" d="m1887.43,883.04c0-6.23-8.54-11.27-19.08-11.27s-19.08,5.05-19.08,11.27,8.54,11.27,19.08,11.27,19.08-5.05,19.08-11.27Z"/><path class="cls-8" d="m63.65,910.34c0-6.22-8.53-11.26-19.06-11.27v22.54c10.53,0,19.06-5.05,19.06-11.27Z"/><ellipse class="cls-8" cx="102.42" cy="910.34" rx="19.08" ry="11.27"/><ellipse class="cls-8" cx="160.28" cy="910.34" rx="19.08" ry="11.27"/><ellipse class="cls-8" cx="218.14" cy="910.34" rx="19.08" ry="11.27"/><ellipse class="cls-8" cx="275.99" cy="910.34" rx="19.08" ry="11.27"/><ellipse class="cls-8" cx="333.85" cy="910.34" rx="19.08" ry="11.27"/><ellipse class="cls-8" cx="391.71" cy="910.34" rx="19.08" ry="11.27"/><ellipse class="cls-8" cx="449.56" cy="910.34" rx="19.08" ry="11.27"/><ellipse class="cls-8" cx="507.42" cy="910.34" rx="19.08" ry="11.27"/><ellipse class="cls-8" cx="565.28" cy="910.34" rx="19.08" ry="11.27"/><ellipse class="cls-8" cx="623.13" cy="910.34" rx="19.08" ry="11.27"/><ellipse class="cls-8" cx="680.99" cy="910.34" rx="19.08" ry="11.27"/><ellipse class="cls-8" cx="738.85" cy="910.34" rx="19.08" ry="11.27"/><ellipse class="cls-8" cx="796.7" cy="910.34" rx="19.08" ry="11.27"/><ellipse class="cls-8" cx="854.56" cy="910.34" rx="19.08" ry="11.27"/><ellipse class="cls-8" cx="912.42" cy="910.34" rx="19.08" ry="11.27"/><ellipse class="cls-8" cx="970.27" cy="910.34" rx="19.08" ry="11.27"/><ellipse class="cls-8" cx="1028.13" cy="910.34" rx="19.08" ry="11.27"/><ellipse class="cls-8" cx="1085.99" cy="910.34" rx="19.08" ry="11.27"/><ellipse class="cls-8" cx="1143.84" cy="910.34" rx="19.08" ry="11.27"/><ellipse class="cls-8" cx="1201.7" cy="910.34" rx="19.08" ry="11.27"/><ellipse class="cls-8" cx="1259.56" cy="910.34" rx="19.08" ry="11.27"/><ellipse class="cls-8" cx="1317.41" cy="910.34" rx="19.08" ry="11.27"/><ellipse class="cls-8" cx="1375.27" cy="910.34" rx="19.08" ry="11.27"/><ellipse class="cls-8" cx="1433.13" cy="910.34" rx="19.08" ry="11.27"/><ellipse class="cls-8" cx="1490.98" cy="910.34" rx="19.08" ry="11.27"/><ellipse class="cls-8" cx="1548.84" cy="910.34" rx="19.08" ry="11.27"/><ellipse class="cls-8" cx="1606.7" cy="910.34" rx="19.08" ry="11.27"/><ellipse class="cls-8" cx="1664.55" cy="910.34" rx="19.08" ry="11.27"/><ellipse class="cls-8" cx="1722.41" cy="910.34" rx="19.08" ry="11.27"/><ellipse class="cls-8" cx="1780.27" cy="910.34" rx="19.08" ry="11.27"/><ellipse class="cls-8" cx="1838.12" cy="910.34" rx="19.08" ry="11.27"/><path class="cls-8" d="m1876.9,910.34c0,6.22,8.53,11.26,19.06,11.27v-22.54c-10.53,0-19.06,5.05-19.06,11.27Z"/><path class="cls-8" d="m54.58,937.64c0,6.23,8.54,11.27,19.08,11.27s19.08-5.05,19.08-11.27-8.54-11.27-19.08-11.27-19.08,5.05-19.08,11.27Z"/><ellipse class="cls-8" cx="131.52" cy="937.64" rx="19.08" ry="11.27"/><ellipse class="cls-8" cx="189.38" cy="937.64" rx="19.08" ry="11.27"/><ellipse class="cls-8" cx="247.23" cy="937.64" rx="19.08" ry="11.27"/><ellipse class="cls-8" cx="305.09" cy="937.64" rx="19.08" ry="11.27"/><ellipse class="cls-8" cx="362.95" cy="937.64" rx="19.08" ry="11.27"/><ellipse class="cls-8" cx="420.8" cy="937.64" rx="19.08" ry="11.27"/><ellipse class="cls-8" cx="478.66" cy="937.64" rx="19.08" ry="11.27"/><ellipse class="cls-8" cx="536.52" cy="937.64" rx="19.08" ry="11.27"/><ellipse class="cls-8" cx="594.37" cy="937.64" rx="19.08" ry="11.27"/><ellipse class="cls-8" cx="652.23" cy="937.64" rx="19.08" ry="11.27"/><ellipse class="cls-8" cx="710.09" cy="937.64" rx="19.08" ry="11.27"/><ellipse class="cls-8" cx="767.94" cy="937.64" rx="19.08" ry="11.27"/><ellipse class="cls-8" cx="825.8" cy="937.64" rx="19.08" ry="11.27"/><ellipse class="cls-8" cx="883.66" cy="937.64" rx="19.08" ry="11.27"/><ellipse class="cls-8" cx="941.51" cy="937.64" rx="19.08" ry="11.27"/><ellipse class="cls-8" cx="999.37" cy="937.64" rx="19.08" ry="11.27"/><ellipse class="cls-8" cx="1057.23" cy="937.64" rx="19.08" ry="11.27"/><ellipse class="cls-8" cx="1115.08" cy="937.64" rx="19.08" ry="11.27"/><ellipse class="cls-8" cx="1172.94" cy="937.64" rx="19.08" ry="11.27"/><path class="cls-8" d="m1230.8,948.91c10.54,0,19.08-5.05,19.08-11.27s-8.54-11.27-19.08-11.27-19.08,5.05-19.08,11.27,8.54,11.27,19.08,11.27Z"/><path class="cls-8" d="m1288.65,948.91c10.54,0,19.08-5.05,19.08-11.27s-8.54-11.27-19.08-11.27-19.08,5.05-19.08,11.27,8.54,11.27,19.08,11.27Z"/><path class="cls-8" d="m1346.51,948.91c10.54,0,19.08-5.05,19.08-11.27s-8.54-11.27-19.08-11.27-19.08,5.05-19.08,11.27,8.54,11.27,19.08,11.27Z"/><path class="cls-8" d="m1404.37,948.91c10.54,0,19.08-5.05,19.08-11.27s-8.54-11.27-19.08-11.27-19.08,5.05-19.08,11.27,8.54,11.27,19.08,11.27Z"/><path class="cls-8" d="m1462.22,948.91c10.54,0,19.08-5.05,19.08-11.27s-8.54-11.27-19.08-11.27-19.08,5.05-19.08,11.27,8.54,11.27,19.08,11.27Z"/><path class="cls-8" d="m1520.08,948.91c10.54,0,19.08-5.05,19.08-11.27s-8.54-11.27-19.08-11.27-19.08,5.05-19.08,11.27,8.54,11.27,19.08,11.27Z"/><path class="cls-8" d="m1577.94,948.91c10.54,0,19.08-5.05,19.08-11.27s-8.54-11.27-19.08-11.27-19.08,5.05-19.08,11.27,8.54,11.27,19.08,11.27Z"/><path class="cls-8" d="m1635.79,948.91c10.54,0,19.08-5.05,19.08-11.27s-8.54-11.27-19.08-11.27-19.08,5.05-19.08,11.27,8.54,11.27,19.08,11.27Z"/><path class="cls-8" d="m1693.65,948.91c10.54,0,19.08-5.05,19.08-11.27s-8.54-11.27-19.08-11.27-19.08,5.05-19.08,11.27,8.54,11.27,19.08,11.27Z"/><path class="cls-8" d="m1751.51,948.91c10.54,0,19.08-5.05,19.08-11.27s-8.54-11.27-19.08-11.27-19.08,5.05-19.08,11.27,8.54,11.27,19.08,11.27Z"/><path class="cls-8" d="m1809.36,948.91c10.54,0,19.08-5.05,19.08-11.27s-8.54-11.27-19.08-11.27-19.08,5.05-19.08,11.27,8.54,11.27,19.08,11.27Z"/><path class="cls-8" d="m1886.3,937.64c0-6.23-8.54-11.27-19.08-11.27s-19.08,5.05-19.08,11.27,8.54,11.27,19.08,11.27,19.08-5.05,19.08-11.27Z"/><path class="cls-8" d="m60.82,964.94c0-5.65-7.05-10.28-16.23-11.1v22.2c9.17-.82,16.23-5.45,16.23-11.1Z"/><path class="cls-8" d="m99.59,976.21c10.54,0,19.08-5.05,19.08-11.27s-8.54-11.27-19.08-11.27-19.08,5.05-19.08,11.27,8.54,11.27,19.08,11.27Z"/><path class="cls-8" d="m176.53,964.94c0-6.23-8.54-11.27-19.08-11.27s-19.08,5.05-19.08,11.27,8.54,11.27,19.08,11.27,19.08-5.05,19.08-11.27Z"/><path class="cls-8" d="m234.39,964.94c0-6.23-8.54-11.27-19.08-11.27s-19.08,5.05-19.08,11.27,8.54,11.27,19.08,11.27,19.08-5.05,19.08-11.27Z"/><path class="cls-8" d="m292.24,964.94c0-6.23-8.54-11.27-19.08-11.27s-19.08,5.05-19.08,11.27,8.54,11.27,19.08,11.27,19.08-5.05,19.08-11.27Z"/><path class="cls-8" d="m350.1,964.94c0-6.23-8.54-11.27-19.08-11.27s-19.08,5.05-19.08,11.27,8.54,11.27,19.08,11.27,19.08-5.05,19.08-11.27Z"/><path class="cls-8" d="m407.96,964.94c0-6.23-8.54-11.27-19.08-11.27s-19.08,5.05-19.08,11.27,8.54,11.27,19.08,11.27,19.08-5.05,19.08-11.27Z"/><path class="cls-8" d="m465.81,964.94c0-6.23-8.54-11.27-19.08-11.27s-19.08,5.05-19.08,11.27,8.54,11.27,19.08,11.27,19.08-5.05,19.08-11.27Z"/><path class="cls-8" d="m523.67,964.94c0-6.23-8.54-11.27-19.08-11.27s-19.08,5.05-19.08,11.27,8.54,11.27,19.08,11.27,19.08-5.05,19.08-11.27Z"/><path class="cls-8" d="m581.53,964.94c0-6.23-8.54-11.27-19.08-11.27s-19.08,5.05-19.08,11.27,8.54,11.27,19.08,11.27,19.08-5.05,19.08-11.27Z"/><path class="cls-8" d="m639.38,964.94c0-6.23-8.54-11.27-19.08-11.27s-19.08,5.05-19.08,11.27,8.54,11.27,19.08,11.27,19.08-5.05,19.08-11.27Z"/><path class="cls-8" d="m697.24,964.94c0-6.23-8.54-11.27-19.08-11.27s-19.08,5.05-19.08,11.27,8.54,11.27,19.08,11.27,19.08-5.05,19.08-11.27Z"/><path class="cls-8" d="m755.1,964.94c0-6.23-8.54-11.27-19.08-11.27s-19.08,5.05-19.08,11.27,8.54,11.27,19.08,11.27,19.08-5.05,19.08-11.27Z"/><path class="cls-8" d="m812.95,964.94c0-6.23-8.54-11.27-19.08-11.27s-19.08,5.05-19.08,11.27,8.54,11.27,19.08,11.27,19.08-5.05,19.08-11.27Z"/><path class="cls-8" d="m870.81,964.94c0-6.23-8.54-11.27-19.08-11.27s-19.08,5.05-19.08,11.27,8.54,11.27,19.08,11.27,19.08-5.05,19.08-11.27Z"/><path class="cls-8" d="m928.67,964.94c0-6.23-8.54-11.27-19.08-11.27s-19.08,5.05-19.08,11.27,8.54,11.27,19.08,11.27,19.08-5.05,19.08-11.27Z"/><path class="cls-8" d="m986.52,964.94c0-6.23-8.54-11.27-19.08-11.27s-19.08,5.05-19.08,11.27,8.54,11.27,19.08,11.27,19.08-5.05,19.08-11.27Z"/><path class="cls-8" d="m1044.38,964.94c0-6.23-8.54-11.27-19.08-11.27s-19.08,5.05-19.08,11.27,8.54,11.27,19.08,11.27,19.08-5.05,19.08-11.27Z"/><path class="cls-8" d="m1102.24,964.94c0-6.23-8.54-11.27-19.08-11.27s-19.08,5.05-19.08,11.27,8.54,11.27,19.08,11.27,19.08-5.05,19.08-11.27Z"/><path class="cls-8" d="m1160.09,964.94c0-6.23-8.54-11.27-19.08-11.27s-19.08,5.05-19.08,11.27,8.54,11.27,19.08,11.27,19.08-5.05,19.08-11.27Z"/><path class="cls-8" d="m1217.95,964.94c0-6.23-8.54-11.27-19.08-11.27s-19.08,5.05-19.08,11.27,8.54,11.27,19.08,11.27,19.08-5.05,19.08-11.27Z"/><path class="cls-8" d="m1275.81,964.94c0-6.23-8.54-11.27-19.08-11.27s-19.08,5.05-19.08,11.27,8.54,11.27,19.08,11.27,19.08-5.05,19.08-11.27Z"/><path class="cls-8" d="m1333.66,964.94c0-6.23-8.54-11.27-19.08-11.27s-19.08,5.05-19.08,11.27,8.54,11.27,19.08,11.27,19.08-5.05,19.08-11.27Z"/><path class="cls-8" d="m1391.52,964.94c0-6.23-8.54-11.27-19.08-11.27s-19.08,5.05-19.08,11.27,8.54,11.27,19.08,11.27,19.08-5.05,19.08-11.27Z"/><path class="cls-8" d="m1449.37,964.94c0-6.23-8.54-11.27-19.08-11.27s-19.08,5.05-19.08,11.27,8.54,11.27,19.08,11.27,19.08-5.05,19.08-11.27Z"/><path class="cls-8" d="m1507.23,964.94c0-6.23-8.54-11.27-19.08-11.27s-19.08,5.05-19.08,11.27,8.54,11.27,19.08,11.27,19.08-5.05,19.08-11.27Z"/><path class="cls-8" d="m1565.09,964.94c0-6.23-8.54-11.27-19.08-11.27s-19.08,5.05-19.08,11.27,8.54,11.27,19.08,11.27,19.08-5.05,19.08-11.27Z"/><path class="cls-8" d="m1622.94,964.94c0-6.23-8.54-11.27-19.08-11.27s-19.08,5.05-19.08,11.27,8.54,11.27,19.08,11.27,19.08-5.05,19.08-11.27Z"/><path class="cls-8" d="m1680.8,964.94c0-6.23-8.54-11.27-19.08-11.27s-19.08,5.05-19.08,11.27,8.54,11.27,19.08,11.27,19.08-5.05,19.08-11.27Z"/><path class="cls-8" d="m1738.66,964.94c0-6.23-8.54-11.27-19.08-11.27s-19.08,5.05-19.08,11.27,8.54,11.27,19.08,11.27,19.08-5.05,19.08-11.27Z"/><path class="cls-8" d="m1796.51,964.94c0-6.23-8.54-11.27-19.08-11.27s-19.08,5.05-19.08,11.27,8.54,11.27,19.08,11.27,19.08-5.05,19.08-11.27Z"/><path class="cls-8" d="m1854.37,964.94c0-6.23-8.54-11.27-19.08-11.27s-19.08,5.05-19.08,11.27,8.54,11.27,19.08,11.27,19.08-5.05,19.08-11.27Z"/><path class="cls-8" d="m1874.07,964.94c0,6.23,8.54,11.27,19.08,11.27.96,0,1.88-.09,2.81-.17v-22.21c-.92-.08-1.85-.17-2.81-.17-10.54,0-19.08,5.05-19.08,11.27Z"/><ellipse class="cls-8" cx="70.83" cy="992.24" rx="19.08" ry="11.27"/><path class="cls-8" d="m128.69,1003.51c10.54,0,19.08-5.05,19.08-11.27s-8.54-11.27-19.08-11.27-19.08,5.05-19.08,11.27,8.54,11.27,19.08,11.27Z"/><path class="cls-8" d="m186.55,1003.51c10.54,0,19.08-5.05,19.08-11.27s-8.54-11.27-19.08-11.27-19.08,5.05-19.08,11.27,8.54,11.27,19.08,11.27Z"/><path class="cls-8" d="m244.4,1003.51c10.54,0,19.08-5.05,19.08-11.27s-8.54-11.27-19.08-11.27-19.08,5.05-19.08,11.27,8.54,11.27,19.08,11.27Z"/><path class="cls-8" d="m302.26,1003.51c10.54,0,19.08-5.05,19.08-11.27s-8.54-11.27-19.08-11.27-19.08,5.05-19.08,11.27,8.54,11.27,19.08,11.27Z"/><path class="cls-8" d="m360.12,1003.51c10.54,0,19.08-5.05,19.08-11.27s-8.54-11.27-19.08-11.27-19.08,5.05-19.08,11.27,8.54,11.27,19.08,11.27Z"/><path class="cls-8" d="m417.97,1003.51c10.54,0,19.08-5.05,19.08-11.27s-8.54-11.27-19.08-11.27-19.08,5.05-19.08,11.27,8.54,11.27,19.08,11.27Z"/><ellipse class="cls-8" cx="475.83" cy="992.24" rx="19.08" ry="11.27"/><ellipse class="cls-8" cx="533.69" cy="992.24" rx="19.08" ry="11.27"/><ellipse class="cls-8" cx="591.54" cy="992.24" rx="19.08" ry="11.27"/><ellipse class="cls-8" cx="649.4" cy="992.24" rx="19.08" ry="11.27"/><ellipse class="cls-8" cx="707.26" cy="992.24" rx="19.08" ry="11.27"/><ellipse class="cls-8" cx="765.11" cy="992.24" rx="19.08" ry="11.27"/><ellipse class="cls-8" cx="822.97" cy="992.24" rx="19.08" ry="11.27"/><ellipse class="cls-8" cx="880.83" cy="992.24" rx="19.08" ry="11.27"/><ellipse class="cls-8" cx="938.68" cy="992.24" rx="19.08" ry="11.27"/><ellipse class="cls-8" cx="996.54" cy="992.24" rx="19.08" ry="11.27"/><ellipse class="cls-8" cx="1054.4" cy="992.24" rx="19.08" ry="11.27"/><ellipse class="cls-8" cx="1112.25" cy="992.24" rx="19.08" ry="11.27"/><ellipse class="cls-8" cx="1170.11" cy="992.24" rx="19.08" ry="11.27"/><ellipse class="cls-8" cx="1227.97" cy="992.24" rx="19.08" ry="11.27"/><ellipse class="cls-8" cx="1285.82" cy="992.24" rx="19.08" ry="11.27"/><ellipse class="cls-8" cx="1343.68" cy="992.24" rx="19.08" ry="11.27"/><ellipse class="cls-8" cx="1401.54" cy="992.24" rx="19.08" ry="11.27"/><ellipse class="cls-8" cx="1459.39" cy="992.24" rx="19.08" ry="11.27"/><ellipse class="cls-8" cx="1517.25" cy="992.24" rx="19.08" ry="11.27"/><ellipse class="cls-8" cx="1575.11" cy="992.24" rx="19.08" ry="11.27"/><ellipse class="cls-8" cx="1632.96" cy="992.24" rx="19.08" ry="11.27"/><ellipse class="cls-8" cx="1690.82" cy="992.24" rx="19.08" ry="11.27"/><path class="cls-8" d="m1748.68,1003.51c10.54,0,19.08-5.05,19.08-11.27s-8.54-11.27-19.08-11.27-19.08,5.05-19.08,11.27,8.54,11.27,19.08,11.27Z"/><path class="cls-8" d="m1806.53,1003.51c10.54,0,19.08-5.05,19.08-11.27s-8.54-11.27-19.08-11.27-19.08,5.05-19.08,11.27,8.54,11.27,19.08,11.27Z"/><ellipse class="cls-8" cx="1864.39" cy="992.24" rx="19.08" ry="11.27"/><path class="cls-8" d="m45.02,1008.6c1.28,6.24,5.55,11.96,11.98,16.61,1.66-1.67,2.68-3.59,2.68-5.67,0-5.32-6.26-9.76-14.66-10.94Z"/><path class="cls-8" d="m98.46,1008.26c-10.54,0-19.08,5.05-19.08,11.27s8.54,11.27,19.08,11.27,19.08-5.05,19.08-11.27-8.54-11.27-19.08-11.27Z"/><path class="cls-8" d="m156.31,1008.26c-10.54,0-19.08,5.05-19.08,11.27s8.54,11.27,19.08,11.27,19.08-5.05,19.08-11.27-8.54-11.27-19.08-11.27Z"/><path class="cls-8" d="m214.17,1008.26c-10.54,0-19.08,5.05-19.08,11.27s8.54,11.27,19.08,11.27,19.08-5.05,19.08-11.27-8.54-11.27-19.08-11.27Z"/><path class="cls-8" d="m272.03,1008.26c-10.54,0-19.08,5.05-19.08,11.27s8.54,11.27,19.08,11.27,19.08-5.05,19.08-11.27-8.54-11.27-19.08-11.27Z"/><path class="cls-8" d="m329.88,1008.26c-10.54,0-19.08,5.05-19.08,11.27s8.54,11.27,19.08,11.27,19.08-5.05,19.08-11.27-8.54-11.27-19.08-11.27Z"/><path class="cls-8" d="m387.74,1008.26c-10.54,0-19.08,5.05-19.08,11.27s8.54,11.27,19.08,11.27,19.08-5.05,19.08-11.27-8.54-11.27-19.08-11.27Z"/><path class="cls-8" d="m445.6,1008.26c-10.54,0-19.08,5.05-19.08,11.27s8.54,11.27,19.08,11.27,19.08-5.05,19.08-11.27-8.54-11.27-19.08-11.27Z"/><path class="cls-8" d="m503.45,1008.26c-10.54,0-19.08,5.05-19.08,11.27s8.54,11.27,19.08,11.27,19.08-5.05,19.08-11.27-8.54-11.27-19.08-11.27Z"/><path class="cls-8" d="m561.31,1008.26c-10.54,0-19.08,5.05-19.08,11.27s8.54,11.27,19.08,11.27,19.08-5.05,19.08-11.27-8.54-11.27-19.08-11.27Z"/><path class="cls-8" d="m619.17,1008.26c-10.54,0-19.08,5.05-19.08,11.27s8.54,11.27,19.08,11.27,19.08-5.05,19.08-11.27-8.54-11.27-19.08-11.27Z"/><path class="cls-8" d="m677.02,1008.26c-10.54,0-19.08,5.05-19.08,11.27s8.54,11.27,19.08,11.27,19.08-5.05,19.08-11.27-8.54-11.27-19.08-11.27Z"/><path class="cls-8" d="m734.88,1008.26c-10.54,0-19.08,5.05-19.08,11.27s8.54,11.27,19.08,11.27,19.08-5.05,19.08-11.27-8.54-11.27-19.08-11.27Z"/><path class="cls-8" d="m792.74,1008.26c-10.54,0-19.08,5.05-19.08,11.27s8.54,11.27,19.08,11.27,19.08-5.05,19.08-11.27-8.54-11.27-19.08-11.27Z"/><path class="cls-8" d="m850.59,1008.26c-10.54,0-19.08,5.05-19.08,11.27s8.54,11.27,19.08,11.27,19.08-5.05,19.08-11.27-8.54-11.27-19.08-11.27Z"/><path class="cls-8" d="m908.45,1008.26c-10.54,0-19.08,5.05-19.08,11.27s8.54,11.27,19.08,11.27,19.08-5.05,19.08-11.27-8.54-11.27-19.08-11.27Z"/><path class="cls-8" d="m966.31,1008.26c-10.54,0-19.08,5.05-19.08,11.27s8.54,11.27,19.08,11.27,19.08-5.05,19.08-11.27-8.54-11.27-19.08-11.27Z"/><path class="cls-8" d="m1024.16,1008.26c-10.54,0-19.08,5.05-19.08,11.27s8.54,11.27,19.08,11.27,19.08-5.05,19.08-11.27-8.54-11.27-19.08-11.27Z"/><path class="cls-8" d="m1082.02,1008.26c-10.54,0-19.08,5.05-19.08,11.27s8.54,11.27,19.08,11.27,19.08-5.05,19.08-11.27-8.54-11.27-19.08-11.27Z"/><path class="cls-8" d="m1139.88,1008.26c-10.54,0-19.08,5.05-19.08,11.27s8.54,11.27,19.08,11.27,19.08-5.05,19.08-11.27-8.54-11.27-19.08-11.27Z"/><path class="cls-8" d="m1197.73,1008.26c-10.54,0-19.08,5.05-19.08,11.27s8.54,11.27,19.08,11.27,19.08-5.05,19.08-11.27-8.54-11.27-19.08-11.27Z"/><path class="cls-8" d="m1255.59,1008.26c-10.54,0-19.08,5.05-19.08,11.27s8.54,11.27,19.08,11.27,19.08-5.05,19.08-11.27-8.54-11.27-19.08-11.27Z"/><path class="cls-8" d="m1313.45,1008.26c-10.54,0-19.08,5.05-19.08,11.27s8.54,11.27,19.08,11.27,19.08-5.05,19.08-11.27-8.54-11.27-19.08-11.27Z"/><path class="cls-8" d="m1371.3,1008.26c-10.54,0-19.08,5.05-19.08,11.27s8.54,11.27,19.08,11.27,19.08-5.05,19.08-11.27-8.54-11.27-19.08-11.27Z"/><path class="cls-8" d="m1429.16,1008.26c-10.54,0-19.08,5.05-19.08,11.27s8.54,11.27,19.08,11.27,19.08-5.05,19.08-11.27-8.54-11.27-19.08-11.27Z"/><path class="cls-8" d="m1487.02,1008.26c-10.54,0-19.08,5.05-19.08,11.27s8.54,11.27,19.08,11.27,19.08-5.05,19.08-11.27-8.54-11.27-19.08-11.27Z"/><path class="cls-8" d="m1544.87,1008.26c-10.54,0-19.08,5.05-19.08,11.27s8.54,11.27,19.08,11.27,19.08-5.05,19.08-11.27-8.54-11.27-19.08-11.27Z"/><path class="cls-8" d="m1602.73,1008.26c-10.54,0-19.08,5.05-19.08,11.27s8.54,11.27,19.08,11.27,19.08-5.05,19.08-11.27-8.54-11.27-19.08-11.27Z"/><path class="cls-8" d="m1660.59,1008.26c-10.54,0-19.08,5.05-19.08,11.27s8.54,11.27,19.08,11.27,19.08-5.05,19.08-11.27-8.54-11.27-19.08-11.27Z"/><path class="cls-8" d="m1718.44,1008.26c-10.54,0-19.08,5.05-19.08,11.27s8.54,11.27,19.08,11.27,19.08-5.05,19.08-11.27-8.54-11.27-19.08-11.27Z"/><path class="cls-8" d="m1776.3,1008.26c-10.54,0-19.08,5.05-19.08,11.27s8.54,11.27,19.08,11.27,19.08-5.05,19.08-11.27-8.54-11.27-19.08-11.27Z"/><ellipse class="cls-8" cx="1834.16" cy="1019.53" rx="19.08" ry="11.27"/><path class="cls-8" d="m1872.93,1019.53c0,3.34,2.5,6.3,6.4,8.37,8.79-5.08,14.72-11.86,16.22-19.43-1.15-.13-2.33-.21-3.54-.21-10.54,0-19.08,5.05-19.08,11.27Z"/><path class="cls-8" d="m117.83,1037.18h19.44c-2.86-1.01-6.16-1.62-9.72-1.62s-6.87.62-9.72,1.62Z"/><path class="cls-8" d="m175.69,1037.18h19.44c-2.86-1.01-6.16-1.62-9.72-1.62s-6.87.62-9.72,1.62Z"/><path class="cls-8" d="m233.55,1037.18h19.44c-2.86-1.01-6.16-1.62-9.72-1.62s-6.87.62-9.72,1.62Z"/><path class="cls-8" d="m291.4,1037.18h19.44c-2.86-1.01-6.16-1.62-9.72-1.62s-6.87.62-9.72,1.62Z"/><path class="cls-8" d="m349.26,1037.18h19.44c-2.86-1.01-6.16-1.62-9.72-1.62s-6.87.62-9.72,1.62Z"/><path class="cls-8" d="m407.12,1037.18h19.44c-2.86-1.01-6.16-1.62-9.72-1.62s-6.87.62-9.72,1.62Z"/><path class="cls-8" d="m464.97,1037.18h19.44c-2.86-1.01-6.16-1.62-9.72-1.62s-6.87.62-9.72,1.62Z"/><path class="cls-8" d="m522.83,1037.18h19.44c-2.86-1.01-6.16-1.62-9.72-1.62s-6.87.62-9.72,1.62Z"/><path class="cls-8" d="m580.69,1037.18h19.44c-2.86-1.01-6.16-1.62-9.72-1.62s-6.87.62-9.72,1.62Z"/><path class="cls-8" d="m638.54,1037.18h19.44c-2.86-1.01-6.16-1.62-9.72-1.62s-6.87.62-9.72,1.62Z"/><path class="cls-8" d="m696.4,1037.18h19.44c-2.86-1.01-6.16-1.62-9.72-1.62s-6.87.62-9.72,1.62Z"/><path class="cls-8" d="m754.26,1037.18h19.44c-2.86-1.01-6.16-1.62-9.72-1.62s-6.87.62-9.72,1.62Z"/><path class="cls-8" d="m812.11,1037.18h19.44c-2.86-1.01-6.16-1.62-9.72-1.62s-6.87.62-9.72,1.62Z"/><path class="cls-8" d="m869.97,1037.18h19.44c-2.86-1.01-6.16-1.62-9.72-1.62s-6.87.62-9.72,1.62Z"/><path class="cls-8" d="m927.83,1037.18h19.44c-2.86-1.01-6.16-1.62-9.72-1.62s-6.87.62-9.72,1.62Z"/><path class="cls-8" d="m985.68,1037.18h19.44c-2.86-1.01-6.16-1.62-9.72-1.62s-6.87.62-9.72,1.62Z"/><path class="cls-8" d="m1043.54,1037.18h19.44c-2.86-1.01-6.16-1.62-9.72-1.62s-6.87.62-9.72,1.62Z"/><path class="cls-8" d="m1101.4,1037.18h19.44c-2.86-1.01-6.16-1.62-9.72-1.62s-6.87.62-9.72,1.62Z"/><path class="cls-8" d="m1159.25,1037.18h19.44c-2.86-1.01-6.16-1.62-9.72-1.62s-6.87.62-9.72,1.62Z"/><path class="cls-8" d="m1217.11,1037.18h19.44c-2.86-1.01-6.16-1.62-9.72-1.62s-6.87.62-9.72,1.62Z"/><path class="cls-8" d="m1274.97,1037.18h19.44c-2.86-1.01-6.16-1.62-9.72-1.62s-6.87.62-9.72,1.62Z"/><path class="cls-8" d="m1332.82,1037.18h19.44c-2.86-1.01-6.16-1.62-9.72-1.62s-6.87.62-9.72,1.62Z"/><path class="cls-8" d="m1390.68,1037.18h19.44c-2.86-1.01-6.16-1.62-9.72-1.62s-6.87.62-9.72,1.62Z"/><path class="cls-8" d="m1448.54,1037.18h19.44c-2.86-1.01-6.16-1.62-9.72-1.62s-6.87.62-9.72,1.62Z"/><path class="cls-8" d="m1506.39,1037.18h19.44c-2.86-1.01-6.16-1.62-9.72-1.62s-6.87.62-9.72,1.62Z"/><path class="cls-8" d="m1564.25,1037.18h19.44c-2.86-1.01-6.16-1.62-9.72-1.62s-6.87.62-9.72,1.62Z"/><path class="cls-8" d="m1622.11,1037.18h19.44c-2.86-1.01-6.16-1.62-9.72-1.62s-6.87.62-9.72,1.62Z"/><path class="cls-8" d="m1679.96,1037.18h19.44c-2.86-1.01-6.16-1.62-9.72-1.62s-6.87.62-9.72,1.62Z"/><path class="cls-8" d="m1737.82,1037.18h19.44c-2.86-1.01-6.16-1.62-9.72-1.62s-6.87.62-9.72,1.62Z"/><path class="cls-8" d="m1795.68,1037.18h19.44c-2.86-1.01-6.16-1.62-9.72-1.62s-6.87.62-9.72,1.62Z"/><path d="m100.11,757.82c10.54,0,19.08-5.05,19.08-11.27h-24.23c-4.75,0-9.34.4-13.75,1.08.93,5.71,8.98,10.2,18.9,10.2Z"/><path d="m157.96,757.82c10.54,0,19.08-5.05,19.08-11.27h-38.16c0,6.23,8.54,11.27,19.08,11.27Z"/><path d="m215.82,757.82c10.54,0,19.08-5.05,19.08-11.27h-38.16c0,6.23,8.54,11.27,19.08,11.27Z"/><path d="m273.68,757.82c10.54,0,19.08-5.05,19.08-11.27h-38.16c0,6.23,8.54,11.27,19.08,11.27Z"/><path d="m331.53,757.82c10.54,0,19.08-5.05,19.08-11.27h-38.16c0,6.23,8.54,11.27,19.08,11.27Z"/><path d="m389.39,757.82c10.54,0,19.08-5.05,19.08-11.27h-38.16c0,6.23,8.54,11.27,19.08,11.27Z"/><path d="m447.25,757.82c10.54,0,19.08-5.05,19.08-11.27h-38.16c0,6.23,8.54,11.27,19.08,11.27Z"/><path d="m505.1,757.82c10.54,0,19.08-5.05,19.08-11.27h-38.16c0,6.23,8.54,11.27,19.08,11.27Z"/><path d="m562.96,757.82c10.54,0,19.08-5.05,19.08-11.27h-38.16c0,6.23,8.54,11.27,19.08,11.27Z"/><path d="m620.82,757.82c10.54,0,19.08-5.05,19.08-11.27h-38.16c0,6.23,8.54,11.27,19.08,11.27Z"/><path d="m678.67,757.82c10.54,0,19.08-5.05,19.08-11.27h-38.16c0,6.23,8.54,11.27,19.08,11.27Z"/><path d="m736.53,757.82c10.54,0,19.08-5.05,19.08-11.27h-38.16c0,6.23,8.54,11.27,19.08,11.27Z"/><path d="m794.39,757.82c10.54,0,19.08-5.05,19.08-11.27h-38.16c0,6.23,8.54,11.27,19.08,11.27Z"/><path d="m852.24,757.82c10.54,0,19.08-5.05,19.08-11.27h-38.16c0,6.23,8.54,11.27,19.08,11.27Z"/><path d="m910.1,757.82c10.54,0,19.08-5.05,19.08-11.27h-38.16c0,6.23,8.54,11.27,19.08,11.27Z"/><path d="m967.96,757.82c10.54,0,19.08-5.05,19.08-11.27h-38.16c0,6.23,8.54,11.27,19.08,11.27Z"/><path d="m1025.81,757.82c10.54,0,19.08-5.05,19.08-11.27h-38.16c0,6.23,8.54,11.27,19.08,11.27Z"/><path d="m1083.67,757.82c10.54,0,19.08-5.05,19.08-11.27h-38.16c0,6.23,8.54,11.27,19.08,11.27Z"/><path d="m1141.53,757.82c10.54,0,19.08-5.05,19.08-11.27h-38.16c0,6.23,8.54,11.27,19.08,11.27Z"/><path d="m1199.38,757.82c10.54,0,19.08-5.05,19.08-11.27h-38.16c0,6.23,8.54,11.27,19.08,11.27Z"/><path d="m1257.24,757.82c10.54,0,19.08-5.05,19.08-11.27h-38.16c0,6.23,8.54,11.27,19.08,11.27Z"/><path d="m1315.1,757.82c10.54,0,19.08-5.05,19.08-11.27h-38.16c0,6.23,8.54,11.27,19.08,11.27Z"/><path d="m1372.95,757.82c10.54,0,19.08-5.05,19.08-11.27h-38.16c0,6.23,8.54,11.27,19.08,11.27Z"/><path d="m1430.81,757.82c10.54,0,19.08-5.05,19.08-11.27h-38.16c0,6.23,8.54,11.27,19.08,11.27Z"/><path d="m1488.67,757.82c10.54,0,19.08-5.05,19.08-11.27h-38.16c0,6.23,8.54,11.27,19.08,11.27Z"/><path d="m1546.52,757.82c10.54,0,19.08-5.05,19.08-11.27h-38.16c0,6.23,8.54,11.27,19.08,11.27Z"/><path d="m1604.38,757.82c10.54,0,19.08-5.05,19.08-11.27h-38.16c0,6.23,8.54,11.27,19.08,11.27Z"/><path d="m1662.24,757.82c10.54,0,19.08-5.05,19.08-11.27h-38.16c0,6.23,8.54,11.27,19.08,11.27Z"/><path d="m1720.09,757.82c10.54,0,19.08-5.05,19.08-11.27h-38.16c0,6.23,8.54,11.27,19.08,11.27Z"/><path d="m1777.95,757.82c10.54,0,19.08-5.05,19.08-11.27h-38.16c0,6.23,8.54,11.27,19.08,11.27Z"/><path d="m1835.81,757.82c9.45,0,17.25-4.07,18.76-9.4-5.69-1.19-11.79-1.87-18.15-1.87h-19.7c0,6.23,8.54,11.27,19.08,11.27Z"/><ellipse cx="71.35" cy="773.84" rx="19.08" ry="11.27"/><path d="m110.12,773.84c0,6.23,8.54,11.27,19.08,11.27s19.08-5.05,19.08-11.27-8.54-11.27-19.08-11.27-19.08,5.05-19.08,11.27Z"/><ellipse cx="187.06" cy="773.84" rx="19.08" ry="11.27"/><path d="m225.84,773.84c0,6.23,8.54,11.27,19.08,11.27s19.08-5.05,19.08-11.27-8.54-11.27-19.08-11.27-19.08,5.05-19.08,11.27Z"/><ellipse cx="302.77" cy="773.84" rx="19.08" ry="11.27"/><ellipse cx="360.63" cy="773.84" rx="19.08" ry="11.27"/><ellipse cx="418.49" cy="773.84" rx="19.08" ry="11.27"/><ellipse cx="476.34" cy="773.84" rx="19.08" ry="11.27"/><path d="m515.12,773.84c0,6.23,8.54,11.27,19.08,11.27s19.08-5.05,19.08-11.27-8.54-11.27-19.08-11.27-19.08,5.05-19.08,11.27Z"/><ellipse cx="592.06" cy="773.84" rx="19.08" ry="11.27"/><path d="m630.83,773.84c0,6.23,8.54,11.27,19.08,11.27s19.08-5.05,19.08-11.27-8.54-11.27-19.08-11.27-19.08,5.05-19.08,11.27Z"/><ellipse cx="707.77" cy="773.84" rx="19.08" ry="11.27"/><ellipse cx="765.63" cy="773.84" rx="19.08" ry="11.27"/><ellipse cx="823.48" cy="773.84" rx="19.08" ry="11.27"/><ellipse cx="881.34" cy="773.84" rx="19.08" ry="11.27"/><path d="m920.12,773.84c0,6.23,8.54,11.27,19.08,11.27s19.08-5.05,19.08-11.27-8.54-11.27-19.08-11.27-19.08,5.05-19.08,11.27Z"/><ellipse cx="997.05" cy="773.84" rx="19.08" ry="11.27"/><ellipse cx="1054.91" cy="773.84" rx="19.08" ry="11.27"/><ellipse cx="1112.77" cy="773.84" rx="19.08" ry="11.27"/><ellipse cx="1170.62" cy="773.84" rx="19.08" ry="11.27"/><ellipse cx="1228.48" cy="773.84" rx="19.08" ry="11.27"/><ellipse cx="1286.34" cy="773.84" rx="19.08" ry="11.27"/><ellipse cx="1344.19" cy="773.84" rx="19.08" ry="11.27"/><ellipse cx="1402.05" cy="773.84" rx="19.08" ry="11.27"/><ellipse cx="1459.91" cy="773.84" rx="19.08" ry="11.27"/><ellipse cx="1517.76" cy="773.84" rx="19.08" ry="11.27"/><ellipse cx="1575.62" cy="773.84" rx="19.08" ry="11.27"/><ellipse cx="1633.48" cy="773.84" rx="19.08" ry="11.27"/><ellipse cx="1691.33" cy="773.84" rx="19.08" ry="11.27"/><ellipse cx="1749.19" cy="773.84" rx="19.08" ry="11.27"/><ellipse cx="1807.05" cy="773.84" rx="19.08" ry="11.27"/><ellipse cx="1864.9" cy="773.84" rx="19.08" ry="11.27"/><path d="m60.2,801.14c0-6.23-8.54-11.27-19.08-11.27-.38,0-.74.05-1.11.07v22.41c.38.01.73.07,1.11.07,10.54,0,19.08-5.05,19.08-11.27Z"/><ellipse cx="98.97" cy="801.14" rx="19.08" ry="11.27"/><ellipse cx="156.83" cy="801.14" rx="19.08" ry="11.27"/><path d="m214.69,789.87c-10.54,0-19.08,5.05-19.08,11.27s8.54,11.27,19.08,11.27,19.08-5.05,19.08-11.27-8.54-11.27-19.08-11.27Z"/><ellipse cx="272.54" cy="801.14" rx="19.08" ry="11.27"/><path d="m330.4,789.87c-10.54,0-19.08,5.05-19.08,11.27s8.54,11.27,19.08,11.27,19.08-5.05,19.08-11.27-8.54-11.27-19.08-11.27Z"/><ellipse cx="388.26" cy="801.14" rx="19.08" ry="11.27"/><ellipse cx="446.11" cy="801.14" rx="19.08" ry="11.27"/><ellipse cx="503.97" cy="801.14" rx="19.08" ry="11.27"/><ellipse cx="561.83" cy="801.14" rx="19.08" ry="11.27"/><path d="m619.68,789.87c-10.54,0-19.08,5.05-19.08,11.27s8.54,11.27,19.08,11.27,19.08-5.05,19.08-11.27-8.54-11.27-19.08-11.27Z"/><ellipse cx="677.54" cy="801.14" rx="19.08" ry="11.27"/><path d="m735.4,789.87c-10.54,0-19.08,5.05-19.08,11.27s8.54,11.27,19.08,11.27,19.08-5.05,19.08-11.27-8.54-11.27-19.08-11.27Z"/><ellipse cx="793.25" cy="801.14" rx="19.08" ry="11.27"/><ellipse cx="851.11" cy="801.14" rx="19.08" ry="11.27"/><ellipse cx="908.97" cy="801.14" rx="19.08" ry="11.27"/><ellipse cx="966.82" cy="801.14" rx="19.08" ry="11.27"/><path d="m1024.68,789.87c-10.54,0-19.08,5.05-19.08,11.27s8.54,11.27,19.08,11.27,19.08-5.05,19.08-11.27-8.54-11.27-19.08-11.27Z"/><ellipse cx="1082.54" cy="801.14" rx="19.08" ry="11.27"/><path d="m1140.39,789.87c-10.54,0-19.08,5.05-19.08,11.27s8.54,11.27,19.08,11.27,19.08-5.05,19.08-11.27-8.54-11.27-19.08-11.27Z"/><ellipse cx="1198.25" cy="801.14" rx="19.08" ry="11.27"/><ellipse cx="1256.11" cy="801.14" rx="19.08" ry="11.27"/><ellipse cx="1313.96" cy="801.14" rx="19.08" ry="11.27"/><path d="m1371.82,789.87c-10.54,0-19.08,5.05-19.08,11.27s8.54,11.27,19.08,11.27,19.08-5.05,19.08-11.27-8.54-11.27-19.08-11.27Z"/><path d="m1429.68,789.87c-10.54,0-19.08,5.05-19.08,11.27s8.54,11.27,19.08,11.27,19.08-5.05,19.08-11.27-8.54-11.27-19.08-11.27Z"/><ellipse cx="1487.53" cy="801.14" rx="19.08" ry="11.27"/><ellipse cx="1545.39" cy="801.14" rx="19.08" ry="11.27"/><ellipse cx="1603.25" cy="801.14" rx="19.08" ry="11.27"/><ellipse cx="1661.1" cy="801.14" rx="19.08" ry="11.27"/><ellipse cx="1718.96" cy="801.14" rx="19.08" ry="11.27"/><path d="m1776.82,789.87c-10.54,0-19.08,5.05-19.08,11.27s8.54,11.27,19.08,11.27,19.08-5.05,19.08-11.27-8.54-11.27-19.08-11.27Z"/><path d="m1853.75,801.14c0-6.23-8.54-11.27-19.08-11.27s-19.08,5.05-19.08,11.27,8.54,11.27,19.08,11.27,19.08-5.05,19.08-11.27Z"/><path d="m1873.45,801.14c0,5.99,7.94,10.84,17.93,11.2v-22.41c-9.99.36-17.93,5.21-17.93,11.2Z"/><ellipse cx="70.21" cy="828.44" rx="19.08" ry="11.27"/><path d="m108.99,828.44c0,6.23,8.54,11.27,19.08,11.27s19.08-5.05,19.08-11.27-8.54-11.27-19.08-11.27-19.08,5.05-19.08,11.27Z"/><ellipse cx="185.93" cy="828.44" rx="19.08" ry="11.27"/><path d="m224.7,828.44c0,6.23,8.54,11.27,19.08,11.27s19.08-5.05,19.08-11.27-8.54-11.27-19.08-11.27-19.08,5.05-19.08,11.27Z"/><ellipse cx="301.64" cy="828.44" rx="19.08" ry="11.27"/><path d="m340.42,828.44c0,6.23,8.54,11.27,19.08,11.27s19.08-5.05,19.08-11.27-8.54-11.27-19.08-11.27-19.08,5.05-19.08,11.27Z"/><ellipse cx="417.35" cy="828.44" rx="19.08" ry="11.27"/><ellipse cx="475.21" cy="828.44" rx="19.08" ry="11.27"/><ellipse cx="533.07" cy="828.44" rx="19.08" ry="11.27"/><ellipse cx="590.92" cy="828.44" rx="19.08" ry="11.27"/><ellipse cx="648.78" cy="828.44" rx="19.08" ry="11.27"/><ellipse cx="706.64" cy="828.44" rx="19.08" ry="11.27"/><ellipse cx="764.49" cy="828.44" rx="19.08" ry="11.27"/><ellipse cx="822.35" cy="828.44" rx="19.08" ry="11.27"/><ellipse cx="880.21" cy="828.44" rx="19.08" ry="11.27"/><ellipse cx="938.06" cy="828.44" rx="19.08" ry="11.27"/><ellipse cx="995.92" cy="828.44" rx="19.08" ry="11.27"/><ellipse cx="1053.78" cy="828.44" rx="19.08" ry="11.27"/><ellipse cx="1111.63" cy="828.44" rx="19.08" ry="11.27"/><ellipse cx="1169.49" cy="828.44" rx="19.08" ry="11.27"/><ellipse cx="1227.35" cy="828.44" rx="19.08" ry="11.27"/><ellipse cx="1285.2" cy="828.44" rx="19.08" ry="11.27"/><ellipse cx="1343.06" cy="828.44" rx="19.08" ry="11.27"/><ellipse cx="1400.92" cy="828.44" rx="19.08" ry="11.27"/><ellipse cx="1458.77" cy="828.44" rx="19.08" ry="11.27"/><ellipse cx="1516.63" cy="828.44" rx="19.08" ry="11.27"/><ellipse cx="1574.49" cy="828.44" rx="19.08" ry="11.27"/><ellipse cx="1632.34" cy="828.44" rx="19.08" ry="11.27"/><ellipse cx="1690.2" cy="828.44" rx="19.08" ry="11.27"/><ellipse cx="1748.06" cy="828.44" rx="19.08" ry="11.27"/><ellipse cx="1805.91" cy="828.44" rx="19.08" ry="11.27"/><ellipse cx="1863.77" cy="828.44" rx="19.08" ry="11.27"/><path d="m60.2,855.74c0-6.23-8.54-11.27-19.08-11.27-.38,0-.74.05-1.11.07v22.41c.38.01.73.07,1.11.07,10.54,0,19.08-5.05,19.08-11.27Z"/><ellipse cx="98.97" cy="855.74" rx="19.08" ry="11.27"/><ellipse cx="156.83" cy="855.74" rx="19.08" ry="11.27"/><path d="m214.69,844.47c-10.54,0-19.08,5.05-19.08,11.27s8.54,11.27,19.08,11.27,19.08-5.05,19.08-11.27-8.54-11.27-19.08-11.27Z"/><ellipse cx="272.54" cy="855.74" rx="19.08" ry="11.27"/><path d="m330.4,844.47c-10.54,0-19.08,5.05-19.08,11.27s8.54,11.27,19.08,11.27,19.08-5.05,19.08-11.27-8.54-11.27-19.08-11.27Z"/><ellipse cx="388.26" cy="855.74" rx="19.08" ry="11.27"/><ellipse cx="446.11" cy="855.74" rx="19.08" ry="11.27"/><ellipse cx="503.97" cy="855.74" rx="19.08" ry="11.27"/><ellipse cx="561.83" cy="855.74" rx="19.08" ry="11.27"/><path d="m619.68,844.47c-10.54,0-19.08,5.05-19.08,11.27s8.54,11.27,19.08,11.27,19.08-5.05,19.08-11.27-8.54-11.27-19.08-11.27Z"/><ellipse cx="677.54" cy="855.74" rx="19.08" ry="11.27"/><path d="m735.4,844.47c-10.54,0-19.08,5.05-19.08,11.27s8.54,11.27,19.08,11.27,19.08-5.05,19.08-11.27-8.54-11.27-19.08-11.27Z"/><ellipse cx="793.25" cy="855.74" rx="19.08" ry="11.27"/><ellipse cx="851.11" cy="855.74" rx="19.08" ry="11.27"/><ellipse cx="908.97" cy="855.74" rx="19.08" ry="11.27"/><ellipse cx="966.82" cy="855.74" rx="19.08" ry="11.27"/><path d="m1024.68,844.47c-10.54,0-19.08,5.05-19.08,11.27s8.54,11.27,19.08,11.27,19.08-5.05,19.08-11.27-8.54-11.27-19.08-11.27Z"/><ellipse cx="1082.54" cy="855.74" rx="19.08" ry="11.27"/><path d="m1140.39,844.47c-10.54,0-19.08,5.05-19.08,11.27s8.54,11.27,19.08,11.27,19.08-5.05,19.08-11.27-8.54-11.27-19.08-11.27Z"/><ellipse cx="1198.25" cy="855.74" rx="19.08" ry="11.27"/><ellipse cx="1256.11" cy="855.74" rx="19.08" ry="11.27"/><ellipse cx="1313.96" cy="855.74" rx="19.08" ry="11.27"/><path d="m1371.82,844.47c-10.54,0-19.08,5.05-19.08,11.27s8.54,11.27,19.08,11.27,19.08-5.05,19.08-11.27-8.54-11.27-19.08-11.27Z"/><path d="m1429.68,844.47c-10.54,0-19.08,5.05-19.08,11.27s8.54,11.27,19.08,11.27,19.08-5.05,19.08-11.27-8.54-11.27-19.08-11.27Z"/><ellipse cx="1487.53" cy="855.74" rx="19.08" ry="11.27"/><ellipse cx="1545.39" cy="855.74" rx="19.08" ry="11.27"/><ellipse cx="1603.25" cy="855.74" rx="19.08" ry="11.27"/><ellipse cx="1661.1" cy="855.74" rx="19.08" ry="11.27"/><ellipse cx="1718.96" cy="855.74" rx="19.08" ry="11.27"/><path d="m1776.82,844.47c-10.54,0-19.08,5.05-19.08,11.27s8.54,11.27,19.08,11.27,19.08-5.05,19.08-11.27-8.54-11.27-19.08-11.27Z"/><path d="m1853.75,855.74c0-6.23-8.54-11.27-19.08-11.27s-19.08,5.05-19.08,11.27,8.54,11.27,19.08,11.27,19.08-5.05,19.08-11.27Z"/><path d="m1873.45,855.74c0,5.99,7.94,10.84,17.93,11.2v-22.41c-9.99.36-17.93,5.21-17.93,11.2Z"/><path d="m51.13,883.04c0,6.23,8.54,11.27,19.08,11.27s19.08-5.05,19.08-11.27-8.54-11.27-19.08-11.27-19.08,5.05-19.08,11.27Z"/><path d="m108.99,883.04c0,6.23,8.54,11.27,19.08,11.27s19.08-5.05,19.08-11.27-8.54-11.27-19.08-11.27-19.08,5.05-19.08,11.27Z"/><path d="m166.85,883.04c0,6.23,8.54,11.27,19.08,11.27s19.08-5.05,19.08-11.27-8.54-11.27-19.08-11.27-19.08,5.05-19.08,11.27Z"/><path d="m224.7,883.04c0,6.23,8.54,11.27,19.08,11.27s19.08-5.05,19.08-11.27-8.54-11.27-19.08-11.27-19.08,5.05-19.08,11.27Z"/><path d="m282.56,883.04c0,6.23,8.54,11.27,19.08,11.27s19.08-5.05,19.08-11.27-8.54-11.27-19.08-11.27-19.08,5.05-19.08,11.27Z"/><path d="m340.42,883.04c0,6.23,8.54,11.27,19.08,11.27s19.08-5.05,19.08-11.27-8.54-11.27-19.08-11.27-19.08,5.05-19.08,11.27Z"/><path d="m398.27,883.04c0,6.23,8.54,11.27,19.08,11.27s19.08-5.05,19.08-11.27-8.54-11.27-19.08-11.27-19.08,5.05-19.08,11.27Z"/><path d="m456.13,883.04c0,6.23,8.54,11.27,19.08,11.27s19.08-5.05,19.08-11.27-8.54-11.27-19.08-11.27-19.08,5.05-19.08,11.27Z"/><path d="m513.99,883.04c0,6.23,8.54,11.27,19.08,11.27s19.08-5.05,19.08-11.27-8.54-11.27-19.08-11.27-19.08,5.05-19.08,11.27Z"/><path d="m571.84,883.04c0,6.23,8.54,11.27,19.08,11.27s19.08-5.05,19.08-11.27-8.54-11.27-19.08-11.27-19.08,5.05-19.08,11.27Z"/><path d="m629.7,883.04c0,6.23,8.54,11.27,19.08,11.27s19.08-5.05,19.08-11.27-8.54-11.27-19.08-11.27-19.08,5.05-19.08,11.27Z"/><path d="m687.56,883.04c0,6.23,8.54,11.27,19.08,11.27s19.08-5.05,19.08-11.27-8.54-11.27-19.08-11.27-19.08,5.05-19.08,11.27Z"/><path d="m745.41,883.04c0,6.23,8.54,11.27,19.08,11.27s19.08-5.05,19.08-11.27-8.54-11.27-19.08-11.27-19.08,5.05-19.08,11.27Z"/><path d="m803.27,883.04c0,6.23,8.54,11.27,19.08,11.27s19.08-5.05,19.08-11.27-8.54-11.27-19.08-11.27-19.08,5.05-19.08,11.27Z"/><path d="m861.13,883.04c0,6.23,8.54,11.27,19.08,11.27s19.08-5.05,19.08-11.27-8.54-11.27-19.08-11.27-19.08,5.05-19.08,11.27Z"/><path d="m918.98,883.04c0,6.23,8.54,11.27,19.08,11.27s19.08-5.05,19.08-11.27-8.54-11.27-19.08-11.27-19.08,5.05-19.08,11.27Z"/><path d="m976.84,883.04c0,6.23,8.54,11.27,19.08,11.27s19.08-5.05,19.08-11.27-8.54-11.27-19.08-11.27-19.08,5.05-19.08,11.27Z"/><path d="m1034.7,883.04c0,6.23,8.54,11.27,19.08,11.27s19.08-5.05,19.08-11.27-8.54-11.27-19.08-11.27-19.08,5.05-19.08,11.27Z"/><path d="m1092.55,883.04c0,6.23,8.54,11.27,19.08,11.27s19.08-5.05,19.08-11.27-8.54-11.27-19.08-11.27-19.08,5.05-19.08,11.27Z"/><path d="m1150.41,883.04c0,6.23,8.54,11.27,19.08,11.27s19.08-5.05,19.08-11.27-8.54-11.27-19.08-11.27-19.08,5.05-19.08,11.27Z"/><path d="m1208.27,883.04c0,6.23,8.54,11.27,19.08,11.27s19.08-5.05,19.08-11.27-8.54-11.27-19.08-11.27-19.08,5.05-19.08,11.27Z"/><path d="m1266.12,883.04c0,6.23,8.54,11.27,19.08,11.27s19.08-5.05,19.08-11.27-8.54-11.27-19.08-11.27-19.08,5.05-19.08,11.27Z"/><path d="m1323.98,883.04c0,6.23,8.54,11.27,19.08,11.27s19.08-5.05,19.08-11.27-8.54-11.27-19.08-11.27-19.08,5.05-19.08,11.27Z"/><path d="m1381.84,883.04c0,6.23,8.54,11.27,19.08,11.27s19.08-5.05,19.08-11.27-8.54-11.27-19.08-11.27-19.08,5.05-19.08,11.27Z"/><path d="m1439.69,883.04c0,6.23,8.54,11.27,19.08,11.27s19.08-5.05,19.08-11.27-8.54-11.27-19.08-11.27-19.08,5.05-19.08,11.27Z"/><path d="m1497.55,883.04c0,6.23,8.54,11.27,19.08,11.27s19.08-5.05,19.08-11.27-8.54-11.27-19.08-11.27-19.08,5.05-19.08,11.27Z"/><path d="m1555.41,883.04c0,6.23,8.54,11.27,19.08,11.27s19.08-5.05,19.08-11.27-8.54-11.27-19.08-11.27-19.08,5.05-19.08,11.27Z"/><path d="m1613.26,883.04c0,6.23,8.54,11.27,19.08,11.27s19.08-5.05,19.08-11.27-8.54-11.27-19.08-11.27-19.08,5.05-19.08,11.27Z"/><path d="m1671.12,883.04c0,6.23,8.54,11.27,19.08,11.27s19.08-5.05,19.08-11.27-8.54-11.27-19.08-11.27-19.08,5.05-19.08,11.27Z"/><path d="m1728.98,883.04c0,6.23,8.54,11.27,19.08,11.27s19.08-5.05,19.08-11.27-8.54-11.27-19.08-11.27-19.08,5.05-19.08,11.27Z"/><path d="m1786.83,883.04c0,6.23,8.54,11.27,19.08,11.27s19.08-5.05,19.08-11.27-8.54-11.27-19.08-11.27-19.08,5.05-19.08,11.27Z"/><path d="m1882.85,883.04c0-6.23-8.54-11.27-19.08-11.27s-19.08,5.05-19.08,11.27,8.54,11.27,19.08,11.27,19.08-5.05,19.08-11.27Z"/><path d="m59.06,910.34c0-6.22-8.53-11.26-19.06-11.27v22.54c10.53,0,19.06-5.05,19.06-11.27Z"/><ellipse cx="97.84" cy="910.34" rx="19.08" ry="11.27"/><ellipse cx="155.7" cy="910.34" rx="19.08" ry="11.27"/><ellipse cx="213.55" cy="910.34" rx="19.08" ry="11.27"/><ellipse cx="271.41" cy="910.34" rx="19.08" ry="11.27"/><path d="m348.35,910.34c0-6.23-8.54-11.27-19.08-11.27s-19.08,5.05-19.08,11.27,8.54,11.27,19.08,11.27,19.08-5.05,19.08-11.27Z"/><ellipse cx="387.12" cy="910.34" rx="19.08" ry="11.27"/><path d="m464.06,910.34c0-6.23-8.54-11.27-19.08-11.27s-19.08,5.05-19.08,11.27,8.54,11.27,19.08,11.27,19.08-5.05,19.08-11.27Z"/><ellipse cx="502.84" cy="910.34" rx="19.08" ry="11.27"/><ellipse cx="560.69" cy="910.34" rx="19.08" ry="11.27"/><ellipse cx="618.55" cy="910.34" rx="19.08" ry="11.27"/><path d="m695.49,910.34c0-6.23-8.54-11.27-19.08-11.27s-19.08,5.05-19.08,11.27,8.54,11.27,19.08,11.27,19.08-5.05,19.08-11.27Z"/><ellipse cx="734.26" cy="910.34" rx="19.08" ry="11.27"/><ellipse cx="792.12" cy="910.34" rx="19.08" ry="11.27"/><ellipse cx="849.98" cy="910.34" rx="19.08" ry="11.27"/><ellipse cx="907.83" cy="910.34" rx="19.08" ry="11.27"/><path d="m984.77,910.34c0-6.23-8.54-11.27-19.08-11.27s-19.08,5.05-19.08,11.27,8.54,11.27,19.08,11.27,19.08-5.05,19.08-11.27Z"/><ellipse cx="1023.55" cy="910.34" rx="19.08" ry="11.27"/><ellipse cx="1081.4" cy="910.34" rx="19.08" ry="11.27"/><ellipse cx="1139.26" cy="910.34" rx="19.08" ry="11.27"/><path d="m1216.2,910.34c0-6.23-8.54-11.27-19.08-11.27s-19.08,5.05-19.08,11.27,8.54,11.27,19.08,11.27,19.08-5.05,19.08-11.27Z"/><path d="m1274.05,910.34c0-6.23-8.54-11.27-19.08-11.27s-19.08,5.05-19.08,11.27,8.54,11.27,19.08,11.27,19.08-5.05,19.08-11.27Z"/><ellipse cx="1312.83" cy="910.34" rx="19.08" ry="11.27"/><path d="m1389.77,910.34c0-6.23-8.54-11.27-19.08-11.27s-19.08,5.05-19.08,11.27,8.54,11.27,19.08,11.27,19.08-5.05,19.08-11.27Z"/><ellipse cx="1428.54" cy="910.34" rx="19.08" ry="11.27"/><ellipse cx="1486.4" cy="910.34" rx="19.08" ry="11.27"/><ellipse cx="1544.26" cy="910.34" rx="19.08" ry="11.27"/><path d="m1621.19,910.34c0-6.23-8.54-11.27-19.08-11.27s-19.08,5.05-19.08,11.27,8.54,11.27,19.08,11.27,19.08-5.05,19.08-11.27Z"/><path d="m1679.05,910.34c0-6.23-8.54-11.27-19.08-11.27s-19.08,5.05-19.08,11.27,8.54,11.27,19.08,11.27,19.08-5.05,19.08-11.27Z"/><ellipse cx="1717.83" cy="910.34" rx="19.08" ry="11.27"/><path d="m1794.76,910.34c0-6.23-8.54-11.27-19.08-11.27s-19.08,5.05-19.08,11.27,8.54,11.27,19.08,11.27,19.08-5.05,19.08-11.27Z"/><ellipse cx="1833.54" cy="910.34" rx="19.08" ry="11.27"/><path d="m1872.31,910.34c0,6.22,8.53,11.26,19.06,11.27v-22.54c-10.53,0-19.06,5.05-19.06,11.27Z"/><path d="m50,937.64c0,6.23,8.54,11.27,19.08,11.27s19.08-5.05,19.08-11.27-8.54-11.27-19.08-11.27-19.08,5.05-19.08,11.27Z"/><path d="m126.94,948.91c10.54,0,19.08-5.05,19.08-11.27s-8.54-11.27-19.08-11.27-19.08,5.05-19.08,11.27,8.54,11.27,19.08,11.27Z"/><path d="m184.79,948.91c10.54,0,19.08-5.05,19.08-11.27s-8.54-11.27-19.08-11.27-19.08,5.05-19.08,11.27,8.54,11.27,19.08,11.27Z"/><path d="m242.65,948.91c10.54,0,19.08-5.05,19.08-11.27s-8.54-11.27-19.08-11.27-19.08,5.05-19.08,11.27,8.54,11.27,19.08,11.27Z"/><path d="m300.51,948.91c10.54,0,19.08-5.05,19.08-11.27s-8.54-11.27-19.08-11.27-19.08,5.05-19.08,11.27,8.54,11.27,19.08,11.27Z"/><path d="m358.36,948.91c10.54,0,19.08-5.05,19.08-11.27s-8.54-11.27-19.08-11.27-19.08,5.05-19.08,11.27,8.54,11.27,19.08,11.27Z"/><path d="m416.22,948.91c10.54,0,19.08-5.05,19.08-11.27s-8.54-11.27-19.08-11.27-19.08,5.05-19.08,11.27,8.54,11.27,19.08,11.27Z"/><path d="m474.08,948.91c10.54,0,19.08-5.05,19.08-11.27s-8.54-11.27-19.08-11.27-19.08,5.05-19.08,11.27,8.54,11.27,19.08,11.27Z"/><path d="m531.93,948.91c10.54,0,19.08-5.05,19.08-11.27s-8.54-11.27-19.08-11.27-19.08,5.05-19.08,11.27,8.54,11.27,19.08,11.27Z"/><path d="m589.79,948.91c10.54,0,19.08-5.05,19.08-11.27s-8.54-11.27-19.08-11.27-19.08,5.05-19.08,11.27,8.54,11.27,19.08,11.27Z"/><path d="m647.65,948.91c10.54,0,19.08-5.05,19.08-11.27s-8.54-11.27-19.08-11.27-19.08,5.05-19.08,11.27,8.54,11.27,19.08,11.27Z"/><path d="m705.5,948.91c10.54,0,19.08-5.05,19.08-11.27s-8.54-11.27-19.08-11.27-19.08,5.05-19.08,11.27,8.54,11.27,19.08,11.27Z"/><path d="m763.36,948.91c10.54,0,19.08-5.05,19.08-11.27s-8.54-11.27-19.08-11.27-19.08,5.05-19.08,11.27,8.54,11.27,19.08,11.27Z"/><path d="m821.22,948.91c10.54,0,19.08-5.05,19.08-11.27s-8.54-11.27-19.08-11.27-19.08,5.05-19.08,11.27,8.54,11.27,19.08,11.27Z"/><path d="m879.07,948.91c10.54,0,19.08-5.05,19.08-11.27s-8.54-11.27-19.08-11.27-19.08,5.05-19.08,11.27,8.54,11.27,19.08,11.27Z"/><path d="m936.93,948.91c10.54,0,19.08-5.05,19.08-11.27s-8.54-11.27-19.08-11.27-19.08,5.05-19.08,11.27,8.54,11.27,19.08,11.27Z"/><path d="m994.79,948.91c10.54,0,19.08-5.05,19.08-11.27s-8.54-11.27-19.08-11.27-19.08,5.05-19.08,11.27,8.54,11.27,19.08,11.27Z"/><path d="m1052.64,948.91c10.54,0,19.08-5.05,19.08-11.27s-8.54-11.27-19.08-11.27-19.08,5.05-19.08,11.27,8.54,11.27,19.08,11.27Z"/><path d="m1110.5,948.91c10.54,0,19.08-5.05,19.08-11.27s-8.54-11.27-19.08-11.27-19.08,5.05-19.08,11.27,8.54,11.27,19.08,11.27Z"/><path d="m1168.36,948.91c10.54,0,19.08-5.05,19.08-11.27s-8.54-11.27-19.08-11.27-19.08,5.05-19.08,11.27,8.54,11.27,19.08,11.27Z"/><path d="m1226.21,948.91c10.54,0,19.08-5.05,19.08-11.27s-8.54-11.27-19.08-11.27-19.08,5.05-19.08,11.27,8.54,11.27,19.08,11.27Z"/><path d="m1284.07,948.91c10.54,0,19.08-5.05,19.08-11.27s-8.54-11.27-19.08-11.27-19.08,5.05-19.08,11.27,8.54,11.27,19.08,11.27Z"/><path d="m1341.93,948.91c10.54,0,19.08-5.05,19.08-11.27s-8.54-11.27-19.08-11.27-19.08,5.05-19.08,11.27,8.54,11.27,19.08,11.27Z"/><path d="m1399.78,948.91c10.54,0,19.08-5.05,19.08-11.27s-8.54-11.27-19.08-11.27-19.08,5.05-19.08,11.27,8.54,11.27,19.08,11.27Z"/><path d="m1457.64,948.91c10.54,0,19.08-5.05,19.08-11.27s-8.54-11.27-19.08-11.27-19.08,5.05-19.08,11.27,8.54,11.27,19.08,11.27Z"/><path d="m1515.5,948.91c10.54,0,19.08-5.05,19.08-11.27s-8.54-11.27-19.08-11.27-19.08,5.05-19.08,11.27,8.54,11.27,19.08,11.27Z"/><path d="m1573.35,948.91c10.54,0,19.08-5.05,19.08-11.27s-8.54-11.27-19.08-11.27-19.08,5.05-19.08,11.27,8.54,11.27,19.08,11.27Z"/><path d="m1631.21,948.91c10.54,0,19.08-5.05,19.08-11.27s-8.54-11.27-19.08-11.27-19.08,5.05-19.08,11.27,8.54,11.27,19.08,11.27Z"/><path d="m1689.07,948.91c10.54,0,19.08-5.05,19.08-11.27s-8.54-11.27-19.08-11.27-19.08,5.05-19.08,11.27,8.54,11.27,19.08,11.27Z"/><path d="m1746.92,948.91c10.54,0,19.08-5.05,19.08-11.27s-8.54-11.27-19.08-11.27-19.08,5.05-19.08,11.27,8.54,11.27,19.08,11.27Z"/><path d="m1804.78,948.91c10.54,0,19.08-5.05,19.08-11.27s-8.54-11.27-19.08-11.27-19.08,5.05-19.08,11.27,8.54,11.27,19.08,11.27Z"/><path d="m1881.72,937.64c0-6.23-8.54-11.27-19.08-11.27s-19.08,5.05-19.08,11.27,8.54,11.27,19.08,11.27,19.08-5.05,19.08-11.27Z"/><path d="m56.23,964.94c0-5.65-7.05-10.28-16.23-11.1v22.2c9.17-.82,16.23-5.45,16.23-11.1Z"/><path d="m95.01,976.21c10.54,0,19.08-5.05,19.08-11.27s-8.54-11.27-19.08-11.27-19.08,5.05-19.08,11.27,8.54,11.27,19.08,11.27Z"/><ellipse cx="152.86" cy="964.94" rx="19.08" ry="11.27"/><ellipse cx="210.72" cy="964.94" rx="19.08" ry="11.27"/><ellipse cx="268.58" cy="964.94" rx="19.08" ry="11.27"/><ellipse cx="326.43" cy="964.94" rx="19.08" ry="11.27"/><path d="m403.37,964.94c0-6.23-8.54-11.27-19.08-11.27s-19.08,5.05-19.08,11.27,8.54,11.27,19.08,11.27,19.08-5.05,19.08-11.27Z"/><ellipse cx="442.15" cy="964.94" rx="19.08" ry="11.27"/><path d="m519.09,964.94c0-6.23-8.54-11.27-19.08-11.27s-19.08,5.05-19.08,11.27,8.54,11.27,19.08,11.27,19.08-5.05,19.08-11.27Z"/><ellipse cx="557.86" cy="964.94" rx="19.08" ry="11.27"/><path d="m634.8,964.94c0-6.23-8.54-11.27-19.08-11.27s-19.08,5.05-19.08,11.27,8.54,11.27,19.08,11.27,19.08-5.05,19.08-11.27Z"/><ellipse cx="673.57" cy="964.94" rx="19.08" ry="11.27"/><ellipse cx="731.43" cy="964.94" rx="19.08" ry="11.27"/><path d="m808.37,964.94c0-6.23-8.54-11.27-19.08-11.27s-19.08,5.05-19.08,11.27,8.54,11.27,19.08,11.27,19.08-5.05,19.08-11.27Z"/><ellipse cx="847.14" cy="964.94" rx="19.08" ry="11.27"/><path d="m924.08,964.94c0-6.23-8.54-11.27-19.08-11.27s-19.08,5.05-19.08,11.27,8.54,11.27,19.08,11.27,19.08-5.05,19.08-11.27Z"/><ellipse cx="962.86" cy="964.94" rx="19.08" ry="11.27"/><path d="m1039.8,964.94c0-6.23-8.54-11.27-19.08-11.27s-19.08,5.05-19.08,11.27,8.54,11.27,19.08,11.27,19.08-5.05,19.08-11.27Z"/><ellipse cx="1078.57" cy="964.94" rx="19.08" ry="11.27"/><path d="m1155.51,964.94c0-6.23-8.54-11.27-19.08-11.27s-19.08,5.05-19.08,11.27,8.54,11.27,19.08,11.27,19.08-5.05,19.08-11.27Z"/><path d="m1213.37,964.94c0-6.23-8.54-11.27-19.08-11.27s-19.08,5.05-19.08,11.27,8.54,11.27,19.08,11.27,19.08-5.05,19.08-11.27Z"/><path d="m1271.22,964.94c0-6.23-8.54-11.27-19.08-11.27s-19.08,5.05-19.08,11.27,8.54,11.27,19.08,11.27,19.08-5.05,19.08-11.27Z"/><ellipse cx="1310" cy="964.94" rx="19.08" ry="11.27"/><ellipse cx="1367.85" cy="964.94" rx="19.08" ry="11.27"/><ellipse cx="1425.71" cy="964.94" rx="19.08" ry="11.27"/><ellipse cx="1483.57" cy="964.94" rx="19.08" ry="11.27"/><path d="m1560.51,964.94c0-6.23-8.54-11.27-19.08-11.27s-19.08,5.05-19.08,11.27,8.54,11.27,19.08,11.27,19.08-5.05,19.08-11.27Z"/><path d="m1618.36,964.94c0-6.23-8.54-11.27-19.08-11.27s-19.08,5.05-19.08,11.27,8.54,11.27,19.08,11.27,19.08-5.05,19.08-11.27Z"/><path d="m1676.22,964.94c0-6.23-8.54-11.27-19.08-11.27s-19.08,5.05-19.08,11.27,8.54,11.27,19.08,11.27,19.08-5.05,19.08-11.27Z"/><ellipse cx="1714.99" cy="964.94" rx="19.08" ry="11.27"/><ellipse cx="1772.85" cy="964.94" rx="19.08" ry="11.27"/><ellipse cx="1830.71" cy="964.94" rx="19.08" ry="11.27"/><path d="m1869.48,964.94c0,6.23,8.54,11.27,19.08,11.27.96,0,1.89-.09,2.81-.17v-22.21c-.92-.08-1.85-.17-2.81-.17-10.54,0-19.08,5.05-19.08,11.27Z"/><ellipse cx="66.25" cy="992.24" rx="19.08" ry="11.27"/><path d="m124.11,1003.51c10.54,0,19.08-5.05,19.08-11.27s-8.54-11.27-19.08-11.27-19.08,5.05-19.08,11.27,8.54,11.27,19.08,11.27Z"/><ellipse cx="181.96" cy="992.24" rx="19.08" ry="11.27"/><ellipse cx="239.82" cy="992.24" rx="19.08" ry="11.27"/><ellipse cx="297.68" cy="992.24" rx="19.08" ry="11.27"/><ellipse cx="355.53" cy="992.24" rx="19.08" ry="11.27"/><path d="m413.39,1003.51c10.54,0,19.08-5.05,19.08-11.27s-8.54-11.27-19.08-11.27-19.08,5.05-19.08,11.27,8.54,11.27,19.08,11.27Z"/><ellipse cx="471.25" cy="992.24" rx="19.08" ry="11.27"/><ellipse cx="529.1" cy="992.24" rx="19.08" ry="11.27"/><ellipse cx="586.96" cy="992.24" rx="19.08" ry="11.27"/><ellipse cx="644.82" cy="992.24" rx="19.08" ry="11.27"/><ellipse cx="702.67" cy="992.24" rx="19.08" ry="11.27"/><ellipse cx="760.53" cy="992.24" rx="19.08" ry="11.27"/><ellipse cx="818.39" cy="992.24" rx="19.08" ry="11.27"/><ellipse cx="876.24" cy="992.24" rx="19.08" ry="11.27"/><ellipse cx="934.1" cy="992.24" rx="19.08" ry="11.27"/><ellipse cx="991.96" cy="992.24" rx="19.08" ry="11.27"/><ellipse cx="1049.81" cy="992.24" rx="19.08" ry="11.27"/><ellipse cx="1107.67" cy="992.24" rx="19.08" ry="11.27"/><ellipse cx="1165.53" cy="992.24" rx="19.08" ry="11.27"/><ellipse cx="1223.38" cy="992.24" rx="19.08" ry="11.27"/><ellipse cx="1281.24" cy="992.24" rx="19.08" ry="11.27"/><ellipse cx="1339.1" cy="992.24" rx="19.08" ry="11.27"/><ellipse cx="1396.95" cy="992.24" rx="19.08" ry="11.27"/><ellipse cx="1454.81" cy="992.24" rx="19.08" ry="11.27"/><ellipse cx="1512.67" cy="992.24" rx="19.08" ry="11.27"/><ellipse cx="1570.52" cy="992.24" rx="19.08" ry="11.27"/><ellipse cx="1628.38" cy="992.24" rx="19.08" ry="11.27"/><ellipse cx="1686.24" cy="992.24" rx="19.08" ry="11.27"/><ellipse cx="1744.09" cy="992.24" rx="19.08" ry="11.27"/><path d="m1801.95,1003.51c10.54,0,19.08-5.05,19.08-11.27s-8.54-11.27-19.08-11.27-19.08,5.05-19.08,11.27,8.54,11.27,19.08,11.27Z"/><path d="m1878.89,992.24c0-6.23-8.54-11.27-19.08-11.27s-19.08,5.05-19.08,11.27,8.54,11.27,19.08,11.27,19.08-5.05,19.08-11.27Z"/><path d="m40.44,1008.6c1.28,6.24,5.55,11.96,11.98,16.61,1.66-1.67,2.68-3.59,2.68-5.67,0-5.32-6.26-9.76-14.66-10.94Z"/><path d="m93.87,1008.26c-10.54,0-19.08,5.05-19.08,11.27s8.54,11.27,19.08,11.27,19.08-5.05,19.08-11.27-8.54-11.27-19.08-11.27Z"/><ellipse cx="151.73" cy="1019.53" rx="19.08" ry="11.27"/><path d="m209.59,1008.26c-10.54,0-19.08,5.05-19.08,11.27s8.54,11.27,19.08,11.27,19.08-5.05,19.08-11.27-8.54-11.27-19.08-11.27Z"/><ellipse cx="267.44" cy="1019.53" rx="19.08" ry="11.27"/><ellipse cx="325.3" cy="1019.53" rx="19.08" ry="11.27"/><ellipse cx="383.16" cy="1019.53" rx="19.08" ry="11.27"/><ellipse cx="441.01" cy="1019.53" rx="19.08" ry="11.27"/><path d="m498.87,1008.26c-10.54,0-19.08,5.05-19.08,11.27s8.54,11.27,19.08,11.27,19.08-5.05,19.08-11.27-8.54-11.27-19.08-11.27Z"/><ellipse cx="556.73" cy="1019.53" rx="19.08" ry="11.27"/><ellipse cx="614.58" cy="1019.53" rx="19.08" ry="11.27"/><ellipse cx="672.44" cy="1019.53" rx="19.08" ry="11.27"/><path d="m730.3,1008.26c-10.54,0-19.08,5.05-19.08,11.27s8.54,11.27,19.08,11.27,19.08-5.05,19.08-11.27-8.54-11.27-19.08-11.27Z"/><ellipse cx="788.15" cy="1019.53" rx="19.08" ry="11.27"/><path d="m846.01,1008.26c-10.54,0-19.08,5.05-19.08,11.27s8.54,11.27,19.08,11.27,19.08-5.05,19.08-11.27-8.54-11.27-19.08-11.27Z"/><ellipse cx="903.87" cy="1019.53" rx="19.08" ry="11.27"/><ellipse cx="961.72" cy="1019.53" rx="19.08" ry="11.27"/><ellipse cx="1019.58" cy="1019.53" rx="19.08" ry="11.27"/><ellipse cx="1077.44" cy="1019.53" rx="19.08" ry="11.27"/><path d="m1135.29,1008.26c-10.54,0-19.08,5.05-19.08,11.27s8.54,11.27,19.08,11.27,19.08-5.05,19.08-11.27-8.54-11.27-19.08-11.27Z"/><ellipse cx="1193.15" cy="1019.53" rx="19.08" ry="11.27"/><ellipse cx="1251.01" cy="1019.53" rx="19.08" ry="11.27"/><ellipse cx="1308.86" cy="1019.53" rx="19.08" ry="11.27"/><path d="m1366.72,1008.26c-10.54,0-19.08,5.05-19.08,11.27s8.54,11.27,19.08,11.27,19.08-5.05,19.08-11.27-8.54-11.27-19.08-11.27Z"/><path d="m1424.58,1008.26c-10.54,0-19.08,5.05-19.08,11.27s8.54,11.27,19.08,11.27,19.08-5.05,19.08-11.27-8.54-11.27-19.08-11.27Z"/><ellipse cx="1482.43" cy="1019.53" rx="19.08" ry="11.27"/><path d="m1540.29,1008.26c-10.54,0-19.08,5.05-19.08,11.27s8.54,11.27,19.08,11.27,19.08-5.05,19.08-11.27-8.54-11.27-19.08-11.27Z"/><ellipse cx="1598.15" cy="1019.53" rx="19.08" ry="11.27"/><ellipse cx="1656" cy="1019.53" rx="19.08" ry="11.27"/><ellipse cx="1713.86" cy="1019.53" rx="19.08" ry="11.27"/><path d="m1771.72,1008.26c-10.54,0-19.08,5.05-19.08,11.27s8.54,11.27,19.08,11.27,19.08-5.05,19.08-11.27-8.54-11.27-19.08-11.27Z"/><ellipse cx="1829.57" cy="1019.53" rx="19.08" ry="11.27"/><path d="m1868.35,1019.53c0,3.34,2.5,6.3,6.4,8.37,8.79-5.08,14.72-11.86,16.22-19.43-1.15-.13-2.33-.21-3.54-.21-10.54,0-19.08,5.05-19.08,11.27Z"/><path d="m113.25,1037.18h19.44c-2.86-1.01-6.16-1.62-9.72-1.62s-6.87.62-9.72,1.62Z"/><path d="m171.11,1037.18h19.44c-2.86-1.01-6.16-1.62-9.72-1.62s-6.87.62-9.72,1.62Z"/><path d="m228.96,1037.18h19.45c-2.86-1.01-6.16-1.62-9.72-1.62s-6.87.62-9.72,1.62Z"/><path d="m286.82,1037.18h19.44c-2.86-1.01-6.16-1.62-9.72-1.62s-6.87.62-9.72,1.62Z"/><path d="m344.68,1037.18h19.45c-2.86-1.01-6.16-1.62-9.72-1.62s-6.87.62-9.72,1.62Z"/><path d="m402.53,1037.18h19.44c-2.86-1.01-6.16-1.62-9.72-1.62s-6.87.62-9.72,1.62Z"/><path d="m460.39,1037.18h19.44c-2.86-1.01-6.16-1.62-9.72-1.62s-6.87.62-9.72,1.62Z"/><path d="m518.25,1037.18h19.44c-2.86-1.01-6.16-1.62-9.72-1.62s-6.87.62-9.72,1.62Z"/><path d="m576.1,1037.18h19.44c-2.86-1.01-6.16-1.62-9.72-1.62s-6.87.62-9.72,1.62Z"/><path d="m633.96,1037.18h19.45c-2.86-1.01-6.16-1.62-9.72-1.62s-6.87.62-9.72,1.62Z"/><path d="m691.82,1037.18h19.44c-2.86-1.01-6.16-1.62-9.72-1.62s-6.87.62-9.72,1.62Z"/><path d="m749.67,1037.18h19.45c-2.86-1.01-6.16-1.62-9.72-1.62s-6.87.62-9.72,1.62Z"/><path d="m807.53,1037.18h19.44c-2.86-1.01-6.16-1.62-9.72-1.62s-6.87.62-9.72,1.62Z"/><path d="m865.39,1037.18h19.44c-2.86-1.01-6.16-1.62-9.72-1.62s-6.87.62-9.72,1.62Z"/><path d="m923.24,1037.18h19.44c-2.86-1.01-6.16-1.62-9.72-1.62s-6.87.62-9.72,1.62Z"/><path d="m981.1,1037.18h19.44c-2.86-1.01-6.16-1.62-9.72-1.62s-6.87.62-9.72,1.62Z"/><path d="m1038.96,1037.18h19.44c-2.86-1.01-6.16-1.62-9.72-1.62s-6.87.62-9.72,1.62Z"/><path d="m1096.81,1037.18h19.44c-2.86-1.01-6.16-1.62-9.72-1.62s-6.87.62-9.72,1.62Z"/><path d="m1154.67,1037.18h19.44c-2.86-1.01-6.16-1.62-9.72-1.62s-6.87.62-9.72,1.62Z"/><path d="m1212.53,1037.18h19.44c-2.86-1.01-6.16-1.62-9.72-1.62s-6.87.62-9.72,1.62Z"/><path d="m1270.38,1037.18h19.44c-2.86-1.01-6.16-1.62-9.72-1.62s-6.87.62-9.72,1.62Z"/><path d="m1328.24,1037.18h19.44c-2.86-1.01-6.16-1.62-9.72-1.62s-6.87.62-9.72,1.62Z"/><path d="m1386.1,1037.18h19.44c-2.86-1.01-6.16-1.62-9.72-1.62s-6.87.62-9.72,1.62Z"/><path d="m1443.95,1037.18h19.44c-2.86-1.01-6.16-1.62-9.72-1.62s-6.87.62-9.72,1.62Z"/><path d="m1501.81,1037.18h19.44c-2.86-1.01-6.16-1.62-9.72-1.62s-6.87.62-9.72,1.62Z"/><path d="m1559.67,1037.18h19.44c-2.86-1.01-6.16-1.62-9.72-1.62s-6.87.62-9.72,1.62Z"/><path d="m1617.52,1037.18h19.44c-2.86-1.01-6.16-1.62-9.72-1.62s-6.87.62-9.72,1.62Z"/><path d="m1675.38,1037.18h19.44c-2.86-1.01-6.16-1.62-9.72-1.62s-6.87.62-9.72,1.62Z"/><path d="m1733.24,1037.18h19.44c-2.86-1.01-6.16-1.62-9.72-1.62s-6.87.62-9.72,1.62Z"/><path d="m1791.09,1037.18h19.44c-2.86-1.01-6.16-1.62-9.72-1.62s-6.87.62-9.72,1.62Z"/><rect class="cls-1" x="41.59" y="744.54" width="1851.37" height="276.71" rx="12" ry="12"/><rect class="cls-7" x="40" y="1023.2" width="1867.89" height="50.42"/><text class="cls-6" transform="translate(54.13 924.75) rotate(-19.05)"><tspan x="0" y="0">BEEP</tspan></text><text class="cls-6" transform="translate(257.95 1052.95) rotate(-19.05)"><tspan x="0" y="0">BOOP</tspan></text><text class="cls-5" transform="translate(59.01 912.76) rotate(-19.05)"><tspan x="0" y="0">BEEP</tspan></text><text class="cls-5" transform="translate(262.83 1040.95) rotate(-19.05)"><tspan x="0" y="0">BOOP</tspan></text><text class="cls-4" transform="translate(64.6 902.82) rotate(-19.05)"><tspan x="0" y="0">BEEP</tspan></text><text class="cls-4" transform="translate(268.42 1031.02) rotate(-19.05)"><tspan x="0" y="0">BOOP</tspan></text></g></svg>